<svg xmlns="http://www.w3.org/2000/svg" width="1788" height="1447" viewBox="0 0 1788 1447" version="1.1"><path d="M 859.500 1.115 C 765.279 5.932, 670.789 29.540, 586 69.449 C 490.048 114.612, 405.155 180.626, 335.811 264 C 313.805 290.458, 286.912 328.975, 268.432 360.500 C 240.046 408.924, 214.555 468.589, 199.217 522.500 L 196.373 532.500 98.186 532.755 L -0 533.010 -0 724.005 L 0 915 97.958 915 L 195.915 915 197.974 922.250 C 202.624 938.627, 214.382 973.011, 220.871 989.209 C 276.703 1128.576, 370.055 1243.700, 494.500 1326.652 C 591.616 1391.388, 704.110 1431.632, 821 1443.455 C 861.404 1447.541, 919.174 1447.996, 957 1444.524 C 1112.945 1430.211, 1253.135 1370.517, 1370.583 1268.417 C 1472.118 1180.150, 1549.163 1060.693, 1587.881 931.500 L 1592.676 915.500 1690.588 915 L 1788.500 914.500 1788.753 723.500 L 1789.005 532.500 1690.503 532.760 C 1606.057 532.982, 1592 532.817, 1592 531.602 C 1592 528.929, 1580.977 493.920, 1574.939 477.414 C 1565.079 450.463, 1556.687 431.033, 1543.016 403.500 C 1506.869 330.705, 1463.977 270.976, 1406.528 213.436 C 1334.335 141.130, 1252.476 87.372, 1158.167 50.334 C 1063.924 13.322, 958.990 -3.971, 859.500 1.115 M 863 21.574 C 860.525 21.775, 851.075 22.435, 842 23.042 C 718.597 31.289, 592.481 76.353, 490 148.817 C 437.238 186.125, 385.001 235.171, 345.520 284.471 C 301.167 339.856, 265.649 401.041, 239.378 467.313 C 233.619 481.842, 222.565 513.881, 219.161 525.908 L 217.154 533 841.327 532.967 C 1441.703 532.936, 1465.691 532.866, 1470.500 531.120 C 1473.250 530.122, 1476.269 528.971, 1477.208 528.562 C 1478.510 527.995, 1479.071 528.434, 1479.567 530.409 L 1480.217 533 1525.608 533 C 1560.019 533, 1571 532.712, 1571 531.811 C 1571 529.461, 1562.642 503.153, 1556.375 485.778 C 1500.970 332.173, 1390.406 199.460, 1248.941 116.756 C 1158.194 63.703, 1056.396 31.929, 948.500 22.978 C 935.677 21.914, 871.744 20.864, 863 21.574 M 814.060 350.250 C 805.378 367.988, 796.975 383.874, 795.387 385.553 C 793.799 387.231, 787.874 391.874, 782.221 395.869 C 775.933 400.311, 770.885 404.729, 769.221 407.245 L 766.500 411.358 766.500 440.429 C 766.500 478.971, 766.732 479.693, 779.500 480.922 L 785.500 481.500 786 505 L 786.500 528.500 799.652 528.778 L 812.804 529.057 813.529 518.421 C 813.927 512.571, 814.049 501.758, 813.799 494.392 L 813.345 481 893.439 481 L 973.533 481 976.766 486.406 C 980.633 492.870, 980.699 493.367, 977.620 492.778 C 975.424 492.358, 975.193 492.715, 974.629 497.412 C 973.829 504.071, 973.832 518.498, 974.636 524.360 L 975.272 529 982.989 529 C 987.234 529, 993.473 528.711, 996.853 528.358 L 1003 527.715 1003 504.523 L 1003 481.332 1011.235 480.416 L 1019.470 479.500 1020.829 474 C 1021.716 470.407, 1022.368 459.223, 1022.709 441.747 L 1023.232 414.994 1020.547 409.507 C 1018.468 405.257, 1016.382 402.947, 1011.293 399.260 C 1007.680 396.642, 1001.973 392.475, 998.612 390 L 992.500 385.500 975.500 351.755 L 958.500 318.011 894.173 318.005 L 829.846 318 814.060 350.250 M 825.241 354.505 C 818.508 367.983, 813 379.233, 813 379.505 C 813 379.777, 849.675 380, 894.500 380 C 939.325 380, 976 379.768, 976 379.483 C 976 378.596, 965.155 357.114, 957.707 343.250 L 950.590 330 894.035 330 L 837.481 330 825.241 354.505 M 594.059 398.118 C 592.336 401.078, 587.291 410.835, 582.847 419.801 L 574.767 436.102 567.164 441.815 C 555.396 450.657, 554.999 451.526, 555.007 468.398 C 555.016 485.434, 555.921 496.063, 557.403 496.515 C 558.006 496.700, 560.638 497.137, 563.250 497.487 L 568 498.123 568 513.061 L 568 528 577 528 L 586 528 586 513 L 586 498 629.349 498 C 653.191 498, 676.141 498.291, 680.349 498.647 L 688 499.293 688 513.647 L 688 528 696.387 528 L 704.774 528 705.495 513.103 L 706.216 498.207 709.233 497.603 C 710.892 497.272, 713.266 497, 714.508 497 C 717.596 497, 717.969 494.909, 718.680 473.586 C 719.399 452.036, 719.363 451.932, 707.856 442.887 C 698.906 435.851, 696.432 432.278, 688.755 415.296 C 685.803 408.766, 681.928 401.303, 680.146 398.712 L 676.904 394 643.099 394 C 624.506 394, 606.571 393.715, 603.243 393.368 L 597.192 392.735 594.059 398.118 M 1104.223 395.250 C 1103.660 395.938, 1098.912 405.343, 1093.671 416.151 L 1084.142 435.802 1076.321 441.772 C 1063.885 451.266, 1064.554 449.863, 1064.154 467.298 C 1063.964 475.598, 1064.108 485.182, 1064.473 488.594 L 1065.138 494.798 1071.069 497.371 L 1077 499.943 1077 513.971 L 1077 528 1086 528 L 1095 528 1095 513 L 1095 498 1146 498 L 1197 498 1197 513 L 1197 528 1206 528 L 1215 528 1215 513.114 L 1215 498.227 1220.750 497.364 L 1226.500 496.500 1227.141 490.500 C 1228.010 482.381, 1228.129 461.722, 1227.346 455.202 L 1226.710 449.905 1217.517 443.224 L 1208.323 436.544 1197.582 415.272 L 1186.840 394 1146.043 394 C 1114.616 394, 1105.010 394.287, 1104.223 395.250 M 593.468 416.533 C 589.228 425.091, 585.967 432.300, 586.222 432.555 C 586.477 432.810, 609.497 432.902, 637.378 432.759 L 688.070 432.500 680.285 417 L 672.500 401.500 636.838 401.237 L 601.176 400.975 593.468 416.533 M 1102.598 416.527 C 1098.419 425.066, 1095 432.266, 1095 432.527 C 1095 432.787, 1117.980 433, 1146.067 433 L 1197.135 433 1196.434 430.750 C 1196.048 429.512, 1192.640 422.313, 1188.860 414.750 L 1181.987 401 1146.091 401 L 1110.196 401 1102.598 416.527 M 783.923 420.923 C 780.550 424.296, 780.232 427.726, 782.801 433 C 784.315 436.106, 785 436.535, 788.890 436.814 C 792.697 437.087, 793.714 436.701, 796.636 433.868 C 799.514 431.079, 800 429.929, 800 425.912 C 800 421.364, 799.874 421.167, 795.980 419.609 C 790.136 417.270, 787.263 417.583, 783.923 420.923 M 992.838 419.305 C 991.999 420.144, 990.728 422.243, 990.012 423.971 C 988.850 426.775, 988.965 427.655, 991.076 432.162 L 993.441 437.212 998.411 436.735 C 1002.437 436.348, 1003.934 435.638, 1006.290 433.001 C 1008.657 430.352, 1009.083 429.164, 1008.575 426.623 C 1007.649 421.984, 1003.995 418.866, 998.799 418.281 C 995.629 417.923, 993.927 418.216, 992.838 419.305 M 701 455.709 C 695.745 457.641, 694.397 463.692, 698.156 468.471 C 699.984 470.795, 700.838 471.126, 703.780 470.648 C 711.262 469.434, 713.364 463.210, 708.077 457.923 C 705.186 455.032, 703.919 454.636, 701 455.709 M 1078.225 455.777 C 1075.420 456.232, 1073.402 459.202, 1072.179 464.675 L 1071.246 468.851 1078.873 469.203 C 1083.068 469.397, 1086.899 469.234, 1087.388 468.840 C 1087.887 468.438, 1087.449 465.619, 1086.388 462.402 C 1084.429 456.463, 1082.691 455.052, 1078.225 455.777 M 564.667 456.667 C 564.300 457.033, 564 459.910, 564 463.060 C 564 469.672, 564.406 470, 572.582 470 C 578.642 470, 578.446 470.359, 577.352 461.250 L 576.721 456 571.027 456 C 567.896 456, 565.033 456.300, 564.667 456.667 M 1206.082 459.089 C 1203.680 462.201, 1203.676 462.243, 1205.498 465.626 C 1208.177 470.600, 1208.894 470.910, 1214.867 469.671 L 1220.234 468.557 1219.678 463.173 C 1219.373 460.212, 1218.931 457.598, 1218.697 457.364 C 1218.463 457.129, 1216.073 456.717, 1213.386 456.447 C 1208.836 455.990, 1208.334 456.172, 1206.082 459.089 M 0.490 724 C 0.490 829.325, 0.607 872.413, 0.750 819.750 C 0.893 767.087, 0.893 680.913, 0.750 628.250 C 0.607 575.587, 0.490 618.675, 0.490 724 M 22.544 563.250 C 22.187 568.888, 22.031 645.725, 22.197 734 L 22.500 894.500 825 894.811 C 1266.375 894.982, 1658.662 894.815, 1696.750 894.440 L 1766 893.759 1766 723.379 L 1766 553 894.596 553 L 23.192 553 22.544 563.250 M 165.663 650.250 C 164.814 684.083, 164.813 764.396, 165.660 797.338 L 166.321 823 220.301 823 L 274.280 823 300.390 797.049 L 326.500 771.098 326.500 720.129 L 326.500 669.161 324 666.456 C 321 663.210, 311.097 654.886, 289.178 637.182 L 272.856 624 219.588 624 L 166.321 624 165.663 650.250 M 345.654 632.250 C 344.810 643.098, 344.812 784.914, 345.657 806.340 L 346.314 823 426.096 823 L 505.877 823 506.689 818.250 C 507.754 812.013, 507.744 637.208, 506.678 629.750 L 505.856 624 426.076 624 L 346.296 624 345.654 632.250 M 534.250 624.732 L 530 625.115 530 722.509 L 530 819.902 545.750 820.201 C 554.413 820.365, 561.678 820.397, 561.897 820.270 C 563.062 819.595, 563.881 799.859, 563.937 771.131 L 564 738.762 628.500 739.158 L 693 739.555 693 681.777 L 693 624 615.750 624.175 C 573.263 624.271, 536.587 624.522, 534.250 624.732 M 709 723.500 L 709 823 790 823 L 871 823 871 724.157 L 871 625.313 855.250 624.660 C 846.587 624.301, 810.138 624.005, 774.250 624.003 L 709 624 709 723.500 M 1238.437 625.099 C 1237.144 627.201, 1236.002 651.896, 1236.001 677.750 L 1236 708 1217.250 707.998 C 1206.938 707.997, 1185.338 707.700, 1169.250 707.337 L 1140 706.678 1140 665.839 L 1140 625 1124.157 625 L 1108.313 625 1107.660 640.750 C 1106.810 661.246, 1106.809 777.969, 1107.658 803.339 L 1108.317 823 1123.519 823 L 1138.721 823 1139.352 817.750 C 1139.699 814.862, 1139.987 796.188, 1139.991 776.250 L 1140 740 1187.899 740 L 1235.797 740 1236.335 776.750 C 1236.631 796.962, 1237.239 815.525, 1237.687 818 L 1238.500 822.500 1253.133 822.776 L 1267.765 823.052 1268.511 819.776 C 1269.699 814.559, 1270.239 654.337, 1269.120 639.183 C 1268.576 631.821, 1267.988 625.655, 1267.812 625.479 C 1267.204 624.871, 1238.803 624.503, 1238.437 625.099 M 1287 723.500 L 1287 823 1367.383 823 L 1447.765 823 1448.382 815.750 C 1449.344 804.445, 1449.536 642.561, 1448.599 632.750 L 1447.763 624 1367.382 624 L 1287 624 1287 723.500 M 1474.369 624.730 L 1469.237 625.096 1468.494 678.571 C 1468.086 707.982, 1468.045 733.879, 1468.403 736.119 C 1468.761 738.360, 1469.041 757.413, 1469.025 778.459 C 1469.008 799.505, 1469.277 818.136, 1469.622 819.862 L 1470.250 823 1542.625 823 L 1615 823 1615 807 L 1615 791 1608.750 791 C 1573.315 791.003, 1509.597 790.054, 1506.250 789.474 L 1502 788.737 1502 762.368 L 1502 736 1523.250 735.996 C 1534.938 735.994, 1550.912 735.699, 1558.750 735.341 L 1573 734.689 1573 718.844 L 1573 703 1537.500 703 L 1502 703 1502 680 L 1502 657 1558.525 657 L 1615.050 657 1614.775 640.750 L 1614.500 624.500 1547 624.432 C 1509.875 624.394, 1477.191 624.528, 1474.369 624.730 M 892.003 635.250 C 892.005 640.888, 893.127 657.650, 894.495 672.500 C 895.864 687.350, 896.988 701.413, 896.992 703.750 L 897 708 917.067 708 C 935.717 708, 937.097 707.876, 936.597 706.250 C 936.302 705.288, 935.141 694.150, 934.017 681.500 C 931.167 649.412, 928.996 627.663, 928.605 627.271 C 927.986 626.653, 907.544 625.068, 899.750 625.034 L 892 625 892.003 635.250 M 973.180 625.978 C 969.154 626.434, 965.605 627.062, 965.293 627.373 C 964.982 627.684, 964.817 644.562, 964.926 664.878 C 965.036 685.194, 964.822 703.433, 964.451 705.408 L 963.777 709 950.389 709 L 937 709 937 724.500 L 937 740 917.239 740 L 897.478 740 895.163 766.750 C 891.753 806.145, 890.731 821.065, 891.397 821.731 C 891.724 822.057, 900.030 822.535, 909.854 822.793 L 927.717 823.262 928.310 820.881 C 929.192 817.337, 932.635 785.301, 934.607 762.284 C 935.560 751.166, 936.601 741.655, 936.920 741.149 C 937.239 740.642, 943.575 740.064, 951 739.864 L 964.500 739.500 964.761 780.621 L 965.022 821.742 968.761 822.360 C 970.817 822.700, 981.100 822.983, 991.611 822.989 L 1010.721 823 1011.352 817.750 C 1011.699 814.862, 1011.987 795.942, 1011.991 775.704 L 1012 738.908 1021.955 739.594 C 1033.026 740.357, 1037.370 739.323, 1038.451 735.668 C 1038.804 734.476, 1039.362 727.987, 1039.692 721.250 L 1040.291 709 1026.198 709 L 1012.105 709 1011.802 668.549 C 1011.614 643.303, 1011.124 627.734, 1010.500 627.130 C 1009.122 625.796, 982.142 624.964, 973.180 625.978 M 1053.500 625.918 L 1047.500 626.500 1046.335 636.500 C 1045.694 642, 1044.212 657.750, 1043.041 671.500 C 1041.870 685.250, 1040.643 699.087, 1040.314 702.250 L 1039.715 708 1059.239 708 L 1078.763 708 1079.438 699.250 C 1079.809 694.438, 1081.005 681.725, 1082.097 671 C 1083.188 660.275, 1084.357 645.538, 1084.694 638.250 L 1085.308 625 1072.404 625.168 C 1065.307 625.261, 1056.800 625.598, 1053.500 625.918 M 198.339 663.750 C 197.888 667.462, 197.581 697.275, 197.656 730 L 197.793 789.500 208.146 790.127 C 235.274 791.772, 257.691 790.557, 263.131 787.148 C 264.578 786.242, 272.042 779.411, 279.719 771.969 L 293.677 758.439 294.244 736.469 C 294.555 724.386, 294.516 707.463, 294.155 698.862 L 293.500 683.225 283.599 674.557 C 278.154 669.789, 271.746 664.545, 269.360 662.904 C 261.148 657.253, 259.370 657, 227.954 657 L 199.159 657 198.339 663.750 M 378.406 662.250 C 377.977 665.138, 377.655 694.725, 377.691 728 L 377.756 788.500 383.128 789.409 C 389.343 790.461, 472.600 790.733, 473.628 789.705 C 474.006 789.327, 474.357 759.953, 474.407 724.429 C 474.497 661.590, 474.447 659.801, 472.559 658.420 C 470.949 657.243, 462.808 657, 424.903 657 L 379.188 657 378.406 662.250 M 573 657.518 C 572.175 657.713, 569.354 658.155, 566.731 658.501 L 561.963 659.128 562.231 681.814 L 562.500 704.500 567.500 705.290 C 570.250 705.724, 592.413 706.336, 616.750 706.648 L 661 707.217 661 683.225 C 661 659.244, 660.999 659.233, 658.750 658.448 C 656.560 657.685, 575.990 656.810, 573 657.518 M 741 722.920 L 741 788.841 747.750 789.670 C 751.462 790.127, 772.590 790.500, 794.700 790.500 C 826.342 790.500, 835.177 790.223, 836.200 789.201 C 837.234 788.167, 837.558 774.515, 837.784 722.451 L 838.069 657 789.534 657 L 741 657 741 722.920 M 1329.500 657.675 C 1327.300 657.861, 1324.037 658.256, 1322.250 658.552 L 1319 659.091 1319 723.906 L 1319 788.722 1325.250 789.369 C 1337.793 790.667, 1373.039 791.259, 1394.250 790.528 L 1416 789.779 1416 723.389 L 1416 657 1374.750 657.168 C 1352.063 657.261, 1331.700 657.488, 1329.500 657.675 M 1050.297 739.989 C 1043.863 741.353, 1042.158 742.640, 1041.394 746.712 C 1040.722 750.294, 1044.953 800.941, 1047.161 815.750 L 1048.242 823 1066.766 823 L 1085.291 823 1084.756 810.750 C 1084.461 804.013, 1082.948 785.337, 1081.393 769.250 L 1078.566 740 1073.033 739.993 C 1069.990 739.989, 1064.575 739.786, 1061 739.542 C 1057.425 739.297, 1052.608 739.499, 1050.297 739.989 M 229.250 914.747 C 222.512 914.920, 217 915.239, 217 915.456 C 217 915.672, 220.422 926.323, 224.604 939.123 C 270.463 1079.474, 355.988 1198.757, 474.500 1287.658 C 545.919 1341.232, 631.068 1382.020, 718.500 1404.537 C 848.392 1437.989, 987.872 1433.401, 1114.500 1391.512 C 1240.413 1349.859, 1349.329 1275.499, 1436.107 1171.941 C 1492.134 1105.081, 1536.759 1023.535, 1564.888 936.614 C 1568.250 926.226, 1571 917.175, 1571 916.499 C 1571 914.796, 1527.380 913.581, 1500.527 914.535 C 1482.374 915.180, 1479.882 915.472, 1478.381 917.131 C 1476.200 919.542, 1475.146 919.486, 1472.292 916.805 L 1469.956 914.610 898.728 914.687 C 376.690 914.758, 326.811 914.904, 319.500 916.382 C 309.795 918.344, 309 918.365, 309 916.657 C 309 914.381, 275.110 913.569, 229.250 914.747 M 680.723 960.899 C 669.503 964.591, 660.727 973.408, 655.843 985.895 C 654.083 990.395, 653.637 993.668, 653.580 1002.500 C 653.499 1015.098, 655.094 1021.176, 660.729 1029.735 C 671.923 1046.740, 695.803 1051.420, 709.883 1039.368 L 714 1035.844 714 1039.834 C 714 1051.416, 709.035 1065.753, 703.735 1069.479 C 694.634 1075.876, 682.333 1071.621, 680.418 1061.414 L 679.756 1057.887 674.628 1058.502 C 671.808 1058.840, 666.575 1059.437, 663 1059.828 L 656.500 1060.539 656.781 1064.020 C 657.130 1068.350, 661.780 1078.436, 665.402 1082.718 C 669.952 1088.097, 679.760 1092.259, 689.173 1092.804 C 713.793 1094.229, 730.524 1080.848, 737.224 1054.374 C 739.216 1046.504, 739.462 1043.124, 739.394 1024.500 C 739.310 1001.512, 738.018 993.775, 732.299 982 C 728.709 974.609, 719.567 965.602, 712.295 962.293 C 704.419 958.709, 689.396 958.046, 680.723 960.899 M 783.286 960.397 C 772.558 963.887, 763.898 971.775, 758.665 982.820 C 755.596 989.297, 755.500 989.912, 755.500 1003.052 L 755.500 1016.604 759.266 1024.223 C 763.462 1032.714, 769.803 1039.204, 777.720 1043.110 C 781.719 1045.083, 784.053 1045.471, 792 1045.482 C 802.219 1045.495, 806.027 1044.214, 812.866 1038.459 L 816 1035.822 815.992 1038.161 C 815.979 1042.288, 813.982 1053.349, 812.341 1058.386 C 810.251 1064.799, 804.880 1070.686, 799.892 1072.029 C 792.236 1074.091, 783.823 1069.363, 782.389 1062.193 C 782.033 1060.414, 781.431 1058.767, 781.052 1058.532 C 780.672 1058.297, 775.443 1058.655, 769.431 1059.327 L 758.500 1060.549 758.594 1064.052 C 758.744 1069.616, 763.735 1079.501, 768.710 1084.087 C 775.223 1090.090, 780.830 1092.217, 791.628 1092.782 C 815.072 1094.009, 831.750 1081.016, 838.200 1056.500 C 844.371 1033.045, 841.973 996.780, 833.178 980.570 C 829.116 973.083, 821.990 966.360, 814.275 962.736 C 808.282 959.920, 806.346 959.522, 797.500 959.289 C 791.058 959.119, 786.001 959.513, 783.286 960.397 M 944.746 960.032 C 928.098 964.195, 915.901 978.788, 911.328 1000.016 C 909.102 1010.348, 908.791 1041.881, 910.821 1051.500 C 916.826 1079.959, 932.497 1093.986, 956.981 1092.815 C 964.698 1092.446, 966.777 1091.920, 973.345 1088.674 C 987.969 1081.447, 996 1067.382, 996 1049 C 996 1031.305, 987.848 1016.686, 973.881 1009.334 C 969.014 1006.772, 967.546 1006.501, 958.500 1006.501 C 947.554 1006.500, 945.129 1007.314, 938.353 1013.263 L 934.680 1016.488 935.385 1008.702 C 936.906 991.926, 942.156 982.382, 951.203 979.945 C 959.001 977.845, 967.240 982.431, 968.589 989.623 C 968.940 991.493, 969.513 993.190, 969.863 993.394 C 970.214 993.599, 975.450 993.255, 981.500 992.629 C 994.294 991.306, 994.496 991.073, 990.975 981.663 C 987.705 972.923, 982.242 966.737, 974.372 962.862 C 968.368 959.907, 966.644 959.532, 958.079 959.325 C 952.810 959.197, 946.811 959.515, 944.746 960.032 M 687.027 981.193 C 680.247 984.690, 677.662 990.480, 677.592 1002.332 C 677.527 1013.317, 679.516 1019.490, 684.544 1023.904 C 693.637 1031.888, 707.728 1027.128, 711.013 1014.964 C 712.922 1007.895, 711.874 995.302, 708.940 990.048 C 703.605 980.495, 695.070 977.046, 687.027 981.193 M 790.604 979.993 C 782.558 982.526, 778.471 991.690, 779.199 1005.563 C 779.745 1015.977, 782.743 1022.438, 788.559 1025.734 C 796.599 1030.290, 805.310 1027.804, 810.500 1019.473 C 813.294 1014.988, 813.499 1013.999, 813.483 1005.078 C 813.469 996.799, 813.120 994.822, 810.913 990.500 C 806.649 982.153, 797.984 977.670, 790.604 979.993 M 1022 1053 L 1022 1089 1029 1089 L 1036 1089 1036 1073.500 L 1036 1058 1051 1058 L 1066 1058 1066 1052 L 1066 1046 1051 1046 L 1036 1046 1036 1037.500 L 1036 1029 1053.500 1029 L 1071 1029 1071 1023 L 1071 1017 1046.500 1017 L 1022 1017 1022 1053 M 1083 1052.967 L 1083 1089 1090 1089 L 1097 1089 1097.073 1062.750 L 1097.146 1036.500 1099.043 1041.842 C 1100.087 1044.780, 1103.264 1056.611, 1106.103 1068.133 L 1111.266 1089.082 1118.355 1088.791 L 1125.444 1088.500 1131.666 1063.762 C 1135.087 1050.156, 1138.349 1038.231, 1138.913 1037.262 C 1139.633 1036.025, 1139.948 1043.473, 1139.970 1062.250 L 1140 1089 1146.500 1089 L 1153 1089 1153 1056.125 C 1153 1038.044, 1153.284 1021.829, 1153.632 1020.092 L 1154.263 1016.934 1142.425 1017.217 L 1130.587 1017.500 1129.288 1023.925 C 1127.314 1033.691, 1118.773 1065.106, 1118.237 1064.571 C 1117.978 1064.312, 1114.980 1053.615, 1111.575 1040.800 L 1105.384 1017.500 1094.192 1017.217 L 1083 1016.934 1083 1052.967 M 946.411 1025.891 C 939.189 1030.295, 936.541 1037.095, 937.218 1049.500 C 937.875 1061.534, 942.638 1069.075, 951.410 1071.970 C 955.277 1073.246, 960.871 1072.194, 964.763 1069.459 C 972.688 1063.889, 974.454 1041.126, 967.724 1031.303 C 963.060 1024.494, 952.923 1021.920, 946.411 1025.891 M 864 1078.500 L 864 1091 876 1091 L 888 1091 888 1078.500 L 888 1066 876 1066 L 864 1066 864 1078.500" stroke="none" fill="#201914" fill-rule="evenodd"/><path d="M 855 111.007 C 751.932 119.222, 661.060 148.696, 574.174 202.091 C 467.159 267.856, 379.043 371.378, 330.581 488.274 C 324.943 501.874, 314 531.071, 314 532.515 C 314 532.782, 346.365 533, 385.922 533 L 457.843 533 461.110 525.750 C 491.158 459.074, 540.725 395.699, 599.311 349.051 C 671.863 291.282, 760.160 255.409, 851.500 246.593 C 928.141 239.196, 1004.252 249.793, 1075 277.711 C 1161.740 311.940, 1237.205 371.202, 1291.211 447.500 C 1307.429 470.412, 1325.317 501.130, 1334.575 521.965 L 1339.478 533 1402.489 532.967 C 1469.192 532.933, 1466.850 533.071, 1477.208 528.562 C 1478.510 527.995, 1479.071 528.434, 1479.567 530.409 C 1479.924 531.834, 1480.892 533, 1481.717 533 C 1483.664 533, 1483.232 531.325, 1476.562 513 C 1460.488 468.838, 1437.706 424.027, 1410.980 384 C 1351.024 294.205, 1269.804 222.443, 1174 174.618 C 1105.640 140.492, 1038.296 120.969, 959.500 112.434 C 942.298 110.570, 872.444 109.617, 855 111.007 M 952.686 133.219 C 951.310 138.972, 937.735 224.068, 938.131 224.464 C 938.675 225.009, 1004.110 236, 1006.808 236 C 1008.422 236, 1008.919 234.799, 1009.949 228.419 C 1010.621 224.250, 1011.020 220.701, 1010.836 220.534 C 1010.651 220.367, 999.267 218.358, 985.539 216.071 C 971.810 213.783, 960.371 211.705, 960.119 211.452 C 959.490 210.824, 963.197 186.996, 963.920 187.015 C 964.239 187.024, 974.731 188.751, 987.235 190.854 L 1009.970 194.677 1010.509 191.588 C 1010.805 189.890, 1011.431 186.354, 1011.898 183.731 C 1012.366 181.109, 1012.468 178.796, 1012.124 178.592 C 1011.781 178.388, 1001.255 176.525, 988.734 174.450 C 969.446 171.255, 966.038 170.436, 966.431 169.089 C 966.686 168.215, 967.447 163.787, 968.121 159.250 C 968.795 154.713, 969.831 151.013, 970.423 151.029 C 971.015 151.045, 982.075 152.801, 995 154.931 C 1007.925 157.062, 1018.786 158.511, 1019.137 158.152 C 1020.245 157.016, 1022.145 143.741, 1021.305 143.005 C 1020.862 142.618, 1006.100 139.952, 988.500 137.081 C 970.900 134.210, 955.765 131.654, 954.866 131.400 C 953.783 131.094, 953.048 131.707, 952.686 133.219 M 793.500 139.906 C 784.700 141.492, 774.420 143.340, 770.656 144.014 C 764.025 145.200, 763.828 145.320, 764.326 147.869 C 764.609 149.316, 768.330 170.075, 772.595 194 C 776.860 217.925, 780.493 237.685, 780.670 237.912 C 781.084 238.444, 797.575 235.887, 798.807 235.099 C 799.363 234.744, 798.526 227.666, 796.751 217.704 C 795.105 208.466, 793.930 200.737, 794.139 200.528 C 794.348 200.319, 800.365 198.975, 807.509 197.541 C 814.654 196.107, 822.851 193.797, 825.724 192.406 C 836.240 187.318, 841.728 177.224, 840.693 164.876 C 839.340 148.742, 829.706 138.215, 815.529 137.379 C 811.768 137.157, 803.481 138.108, 793.500 139.906 M 794.130 156.562 C 790.076 157.301, 786.606 158.061, 786.418 158.249 C 786.230 158.437, 787.101 164.195, 788.355 171.045 L 790.633 183.500 793.567 183.164 C 799.153 182.525, 810.012 180.022, 813.477 178.574 C 817.477 176.903, 820.991 171.799, 820.996 167.651 C 821.002 163.428, 818.113 158.110, 814.915 156.456 C 811.526 154.704, 804.102 154.741, 794.130 156.562 M 1124.590 215.279 C 1115.290 232.450, 1106.774 247.512, 1105.666 248.750 C 1103.182 251.525, 1100.580 251.590, 1095.508 249.004 C 1093.354 247.906, 1091.284 247.343, 1090.906 247.754 C 1090.529 248.164, 1088.787 251.071, 1087.035 254.214 L 1083.849 259.929 1089.516 263.554 C 1097.872 268.899, 1101.771 270.276, 1107.094 269.765 C 1116.222 268.888, 1118.713 265.726, 1138.077 230.440 C 1144.850 218.098, 1150.641 208.001, 1150.946 208.002 C 1151.870 208.007, 1174.257 220.475, 1174.383 221.056 C 1174.447 221.353, 1166.219 236.784, 1156.099 255.346 C 1145.307 275.139, 1138.070 289.459, 1138.599 289.972 C 1139.094 290.453, 1142.879 292.662, 1147.009 294.880 L 1154.517 298.913 1177.168 257.482 L 1199.819 216.051 1196.659 214.147 C 1191.718 211.169, 1142.290 183.997, 1141.873 184.029 C 1141.668 184.044, 1133.891 198.107, 1124.590 215.279 M 624 198.219 C 595.985 208.051, 583.807 231.843, 593.545 257.716 C 603.519 284.215, 623.838 298.410, 645.521 294.029 C 659.930 291.117, 675.325 280.242, 681.028 268.945 C 685.075 260.927, 686.598 251.826, 685.252 243.702 C 682.191 225.230, 669.649 206.891, 655.220 199.787 C 649.600 197.021, 647.451 196.535, 639.602 196.259 C 632.130 195.995, 629.336 196.346, 624 198.219 M 632 213.736 C 623.707 214.920, 615.928 220.405, 612.446 227.522 C 610.057 232.405, 609.795 233.902, 610.208 240.333 C 611.183 255.531, 622.601 272.084, 634.495 275.542 C 641.298 277.519, 646.105 276.994, 652.952 273.524 C 665.902 266.962, 669.436 252.692, 662.106 236.560 C 654.722 220.308, 643.826 212.047, 632 213.736 M 316.750 916.716 C 315.238 916.945, 314 917.321, 314 917.551 C 314 917.781, 316.259 924.265, 319.021 931.961 C 382.651 1109.282, 524.629 1248.793, 702 1308.285 C 746.004 1323.044, 788.822 1332.273, 838 1337.598 C 857.662 1339.727, 918.847 1340.617, 940.243 1339.085 C 1108.893 1327.013, 1260.255 1250.286, 1369.265 1121.610 C 1417.113 1065.130, 1457.405 994.455, 1480.069 927.250 L 1483.863 916 1481.554 916 C 1480.284 916, 1478.685 916.675, 1478 917.500 C 1476.415 919.410, 1474.585 919.410, 1473 917.500 C 1471.917 916.194, 1463.224 916, 1405.956 916 L 1340.157 916 1336.890 923.250 C 1320.408 959.824, 1295.620 999.320, 1268.523 1032.186 C 1255.683 1047.759, 1223.834 1079.979, 1209.500 1091.898 C 1178.364 1117.786, 1146.740 1138.589, 1113 1155.378 C 982.363 1220.383, 828.876 1222.598, 696.911 1161.385 C 608.629 1120.434, 534.402 1053.254, 484.738 969.357 C 476.881 956.084, 465.607 934.523, 460.892 923.751 L 457.500 916.002 388.500 916.151 C 350.550 916.233, 318.262 916.487, 316.750 916.716 M 1281.549 1049.113 C 1269.657 1053.203, 1259.153 1062.423, 1253.358 1073.859 C 1250.751 1079.005, 1250.500 1080.426, 1250.500 1090.054 C 1250.500 1100.301, 1250.613 1100.838, 1254.385 1108.466 C 1259.704 1119.226, 1268.171 1127.501, 1279.711 1133.219 C 1287.968 1137.311, 1288.750 1137.500, 1297.425 1137.500 C 1305.688 1137.500, 1307.113 1137.200, 1313.348 1134.152 C 1322.685 1129.587, 1330.698 1121.413, 1335.642 1111.410 C 1339.305 1103.998, 1339.500 1103.122, 1339.500 1094.052 C 1339.500 1085.652, 1339.170 1083.837, 1336.765 1079 C 1329.569 1064.528, 1313.235 1051.102, 1299.201 1048.124 C 1291.831 1046.561, 1288.416 1046.752, 1281.549 1049.113 M 1278.934 1068.750 C 1272.349 1072.089, 1268.250 1078.094, 1267.346 1085.730 C 1266.828 1090.102, 1267.187 1091.802, 1269.813 1097.414 C 1279.546 1118.214, 1303.352 1125.875, 1316.197 1112.342 C 1322.462 1105.741, 1323.941 1095.669, 1319.865 1087.357 C 1318.564 1084.704, 1314.752 1079.770, 1311.394 1076.392 C 1301.101 1066.040, 1289.615 1063.335, 1278.934 1068.750 M 505.771 1088.750 C 495.155 1099.612, 481.976 1113.149, 476.485 1118.831 L 466.500 1129.162 469.500 1131.578 C 478.899 1139.148, 483.185 1138.252, 494.779 1126.293 L 503.058 1117.754 512.779 1127.161 C 525.309 1139.286, 527.434 1140.286, 539.722 1139.843 L 549.250 1139.500 556.995 1131.070 L 564.740 1122.640 565.325 1115.669 C 566.004 1107.561, 565.905 1107.318, 557.489 1096.500 C 547.060 1083.093, 531.339 1069.014, 526.787 1069.004 C 525.844 1069.002, 516.387 1077.888, 505.771 1088.750 M 524.001 1095.689 C 515.694 1104.779, 515.529 1105.156, 517.866 1109.737 C 520.575 1115.047, 527.032 1120.662, 531.955 1121.988 C 537.357 1123.442, 542.171 1121.267, 544.525 1116.307 C 547.579 1109.871, 544.699 1103.402, 535.063 1095.054 L 529.213 1089.987 524.001 1095.689 M 1119.848 1171.583 L 1112.196 1174 1111.599 1179.750 C 1111.271 1182.913, 1109.860 1196.525, 1108.464 1210 C 1107.068 1223.475, 1105.801 1234.922, 1105.650 1235.439 C 1104.999 1237.655, 1087.109 1203.525, 1084.520 1195.130 C 1083.805 1192.811, 1083.613 1192.775, 1075.645 1193.457 C 1071.165 1193.840, 1067.147 1194.495, 1066.715 1194.911 C 1065.059 1196.511, 1101.795 1275.022, 1104.177 1274.972 C 1104.905 1274.957, 1108.632 1273.020, 1112.459 1270.668 L 1119.419 1266.390 1122.606 1240.945 C 1124.359 1226.950, 1126.225 1213.250, 1126.752 1210.500 L 1127.709 1205.500 1133.230 1217 C 1136.267 1223.325, 1140.802 1232.888, 1143.307 1238.250 L 1147.863 1248 1152.682 1247.926 C 1155.332 1247.885, 1159.415 1247.548, 1161.756 1247.176 L 1166.011 1246.500 1158.203 1229.500 C 1153.908 1220.150, 1145.918 1202.730, 1140.447 1190.788 C 1133.836 1176.358, 1129.997 1169.091, 1129 1169.121 C 1128.175 1169.146, 1124.057 1170.254, 1119.848 1171.583 M 696.268 1187.265 C 691.831 1189.720, 635 1251.204, 635 1253.549 C 635 1255.094, 648.754 1259.279, 651.537 1258.580 C 653.647 1258.050, 656.118 1255.535, 661.746 1248.190 L 663.516 1245.880 672.008 1248.539 C 676.679 1250.002, 684.185 1252.771, 688.689 1254.692 L 696.877 1258.185 696.310 1268.342 L 695.743 1278.500 703.621 1281.392 C 707.955 1282.982, 712.063 1284.493, 712.750 1284.749 C 713.739 1285.117, 714 1275.397, 714 1238.223 L 714 1191.232 706.943 1188.616 C 698.805 1185.600, 699.189 1185.648, 696.268 1187.265 M 691.345 1216.213 C 688.510 1219.121, 684.332 1224.185, 682.059 1227.468 L 677.927 1233.435 687.102 1236.746 C 692.148 1238.567, 696.452 1239.882, 696.666 1239.667 C 696.881 1239.452, 696.931 1232.898, 696.778 1225.101 L 696.500 1210.926 691.345 1216.213 M 887.375 1225.743 L 878.250 1226.072 877.636 1229.786 C 877.298 1231.829, 877.013 1241.825, 877.003 1252 C 876.970 1283.570, 874.845 1293.726, 867.276 1298.488 L 864.077 1300.500 864.039 1316.290 L 864 1332.081 872.250 1331.790 L 880.500 1331.500 880.144 1322.881 L 879.788 1314.262 883.222 1313.618 C 887.774 1312.764, 914.594 1311.047, 923.781 1311.021 C 928.771 1311.006, 931.171 1311.393, 931.407 1312.250 C 931.596 1312.938, 932.228 1316.605, 932.812 1320.400 C 933.395 1324.196, 934.476 1327.904, 935.214 1328.642 C 935.952 1329.380, 939.356 1330.277, 942.778 1330.635 L 949 1331.285 949 1320.789 C 949 1315.016, 948.708 1307.502, 948.352 1304.091 C 947.730 1298.138, 947.549 1297.811, 943.852 1295.924 L 940 1293.959 939.979 1281.730 C 939.967 1275.003, 939.299 1260.050, 938.494 1248.500 C 937.689 1236.950, 937.024 1226.938, 937.015 1226.250 C 937 1225.027, 913.848 1224.791, 887.375 1225.743 M 895.588 1256.250 C 895.199 1264.638, 894.241 1276.900, 893.460 1283.500 C 892.679 1290.100, 892.031 1295.838, 892.020 1296.250 C 892.009 1296.662, 898.596 1297, 906.657 1297 L 921.314 1297 920.657 1280.340 C 920.296 1271.177, 920 1258.577, 920 1252.340 L 920 1241 908.148 1241 L 896.297 1241 895.588 1256.250" stroke="none" fill="#d9251c" fill-rule="evenodd"/><path d="M 49.750 553.749 L 23 554.033 23 724.016 L 23 894 894.503 894 L 1766.006 894 1765.753 723.750 L 1765.500 553.500 921 553.483 C 456.525 553.473, 64.463 553.593, 49.750 553.749 M 165.511 627.250 C 165.192 629.038, 165.059 673.885, 165.216 726.910 L 165.500 823.321 219.968 823.410 L 274.435 823.500 300.736 797.500 L 327.036 771.500 327.018 720.715 C 327.002 676.230, 326.805 669.632, 325.427 667.529 C 324.072 665.462, 301.135 646.097, 280.014 629.191 L 273.529 624 219.810 624 L 166.091 624 165.511 627.250 M 345.245 723.467 L 345.500 822.933 425.762 823.217 C 496.421 823.466, 506.073 823.321, 506.428 822 C 507.934 816.407, 508.262 801.631, 508.473 730 C 508.684 658.171, 508.153 631.306, 506.413 625.750 C 505.897 624.102, 501.159 624, 425.428 624 L 344.990 624 345.245 723.467 M 530 721.853 L 530 819.707 537.651 820.353 C 541.859 820.709, 549.228 821, 554.027 821 L 562.752 821 563.350 815.250 C 563.679 812.087, 564.252 793.743, 564.624 774.483 L 565.300 739.467 628.990 739.848 L 692.680 740.230 693.276 709.782 C 693.604 693.036, 693.605 666.884, 693.280 651.667 L 692.687 624 611.344 624 L 530 624 530 721.853 M 708.673 624.661 C 707.828 625.506, 707.798 814.145, 708.642 819.250 L 709.262 823 790.636 823 L 872.010 823 871.755 723.750 L 871.500 624.500 790.423 624.244 C 745.830 624.103, 709.042 624.291, 708.673 624.661 M 1107.667 624.667 C 1107.300 625.033, 1107 669.808, 1107 724.167 L 1107 823 1123.500 823 L 1140 823 1140 781.500 L 1140 740 1187.455 740 L 1234.909 740 1235.440 743.250 C 1235.732 745.038, 1236.149 762.250, 1236.366 781.500 C 1236.584 800.750, 1237.157 818.007, 1237.641 819.848 L 1238.520 823.196 1253.211 823.460 L 1267.902 823.724 1268.398 821.112 C 1268.671 819.675, 1269.163 816.250, 1269.491 813.500 C 1270.407 805.821, 1270.253 641.576, 1269.321 632.500 L 1268.500 624.500 1253.371 624.225 L 1238.243 623.949 1237.517 626.725 C 1237.117 628.251, 1236.500 647.050, 1236.145 668.500 L 1235.500 707.500 1232.750 707.438 C 1231.237 707.403, 1209.750 707.291, 1185 707.188 L 1140 707 1140 665.500 L 1140 624 1124.167 624 C 1115.458 624, 1108.033 624.300, 1107.667 624.667 M 1286.508 635.250 C 1285.737 647.822, 1286.207 821.542, 1287.014 822.347 C 1287.296 822.630, 1323.635 823.004, 1367.766 823.180 L 1448.004 823.500 1448.752 820 C 1449.742 815.367, 1449.722 630.295, 1448.731 626.750 L 1447.962 624 1367.580 624 L 1287.197 624 1286.508 635.250 M 1468.495 637.250 C 1468.105 644.538, 1468.045 685.825, 1468.362 729 C 1468.678 772.175, 1468.952 810.987, 1468.969 815.250 L 1469 823 1542 823 L 1615 823 1615 806.500 L 1615 790 1567.654 790 C 1541.613 790, 1516.188 789.708, 1511.154 789.350 L 1502 788.701 1502 762.363 L 1502 736.025 1537.750 735.763 L 1573.500 735.500 1573.775 719.250 L 1574.050 703 1538.672 703 L 1503.293 703 1502.647 695.349 C 1502.291 691.141, 1502 681.082, 1502 672.996 L 1502 658.293 1509.651 657.647 C 1513.859 657.291, 1539.284 657, 1566.151 657 L 1615 657 1615 640.500 L 1615 624 1542.102 624 L 1469.205 624 1468.495 637.250 M 891.385 638.726 C 891.763 646.276, 892.717 658.988, 893.503 666.976 C 894.290 674.964, 895.424 687.339, 896.024 694.477 C 896.684 702.316, 897.587 707.753, 898.308 708.211 C 898.963 708.628, 907.712 708.976, 917.750 708.985 L 936 709 936 724 L 936 739 916.969 739 C 902.653 739, 897.825 739.310, 897.483 740.250 C 896.762 742.234, 892.010 796.186, 891.318 810.250 L 890.691 823 909.846 823 C 922.969 823, 929 822.658, 929 821.913 C 929 821.315, 929.671 815.353, 930.491 808.663 C 931.591 799.691, 937 742.912, 937 740.337 C 937 740.152, 943.075 740, 950.500 740 L 964 740 964.006 773.250 C 964.009 791.538, 964.301 810.212, 964.654 814.750 L 965.296 823 988.648 823 L 1012 823 1012 781.353 L 1012 739.706 1021.250 740.247 C 1033.178 740.944, 1037.065 739.774, 1038.694 735 C 1039.350 733.075, 1039.913 726.438, 1039.944 720.250 L 1040 709 1058.066 709 C 1068.607 709, 1076.937 708.569, 1078.066 707.965 C 1079.620 707.133, 1080 705.844, 1080 701.400 C 1080 698.359, 1081.091 684.537, 1082.425 670.685 C 1083.759 656.833, 1085.129 640.888, 1085.471 635.250 L 1086.092 625 1067.105 625 C 1056.662 625, 1047.891 625.368, 1047.613 625.817 C 1046.734 627.240, 1045.069 642.584, 1042.493 673 C 1041.119 689.225, 1039.735 703.737, 1039.418 705.250 L 1038.841 708 1025.421 708 L 1012 708 1012 667.093 L 1012 626.187 1002.250 625.455 C 991.990 624.684, 968.730 625.371, 965.750 626.532 C 964.123 627.166, 964 630.064, 964 667.607 L 964 708 950.629 708 L 937.258 708 936.632 703.250 C 936.289 700.638, 935.112 688.600, 934.018 676.500 C 930.039 632.514, 929.682 629.104, 928.922 627.873 C 927.865 626.163, 918.986 625.185, 903.598 625.084 L 890.696 625 891.385 638.726 M 201.398 657.658 C 199.492 658.059, 199.235 659.011, 198.653 667.800 C 198.299 673.135, 198.008 702.549, 198.005 733.165 L 198 788.829 205.250 789.508 C 218.082 790.710, 247.094 790.453, 255.180 789.066 L 262.860 787.748 278.458 772.624 L 294.056 757.500 293.986 720.500 L 293.915 683.500 289.207 679.738 C 286.618 677.669, 281.125 673.048, 277 669.470 C 272.875 665.891, 267.025 661.734, 264 660.232 L 258.500 657.500 231 657.358 C 215.875 657.280, 202.554 657.415, 201.398 657.658 M 383.398 657.705 L 379.295 658.101 378.653 667.800 C 378.299 673.135, 378.008 702.327, 378.005 732.671 L 378 787.841 380.804 788.457 C 386.891 789.794, 419.917 790.685, 446.284 790.223 L 474.068 789.737 473.784 724.451 C 473.628 688.544, 473.125 658.791, 472.668 658.333 C 471.844 657.509, 391.306 656.942, 383.398 657.705 M 578 657.506 C 577.175 657.712, 573.462 658.168, 569.750 658.519 L 563 659.159 563 681.471 L 563 703.783 565.341 704.371 C 570.607 705.693, 606.242 706.950, 632.248 706.732 L 659.997 706.500 659.998 682.867 L 660 659.233 657.250 658.520 C 654.412 657.784, 580.673 656.841, 578 657.506 M 741.997 706.750 C 741.995 734.112, 741.702 763.513, 741.347 772.086 C 740.738 786.767, 740.811 787.722, 742.600 788.546 C 744.756 789.539, 828.669 790.472, 833.544 789.558 L 836.717 788.962 837.448 762.825 C 837.849 748.449, 837.849 718.757, 837.447 696.843 L 836.717 657 789.358 657 L 742 657 741.997 706.750 M 1337 657.654 C 1335.075 657.838, 1330.350 658.244, 1326.500 658.556 L 1319.500 659.124 1319.500 723.498 L 1319.500 787.871 1322.585 788.450 C 1333.989 790.589, 1399.314 791.287, 1411.750 789.402 L 1415 788.909 1415 723.612 L 1415 658.315 1397.750 657.660 C 1380.679 657.013, 1343.758 657.009, 1337 657.654 M 1046.676 740.376 C 1042.162 742.075, 1042.582 741.657, 1041.160 745.865 C 1040.260 748.532, 1040.537 754.648, 1042.497 775.365 C 1045.157 803.467, 1046.835 818.457, 1047.634 821.250 C 1048.088 822.837, 1049.894 823, 1067.067 823 L 1086 823 1085.996 820.750 C 1085.982 812.782, 1079.435 741.102, 1078.650 740.316 C 1078.463 740.130, 1072.053 739.743, 1064.405 739.456 C 1053.719 739.056, 1049.615 739.269, 1046.676 740.376 M 888.389 1078.500 C 888.390 1085.650, 888.550 1088.444, 888.742 1084.708 C 888.935 1080.973, 888.934 1075.123, 888.739 1071.708 C 888.545 1068.294, 888.387 1071.350, 888.389 1078.500" stroke="none" fill="#fdbd03" fill-rule="evenodd"/><path d="M 888.803 109.746 C 894.470 109.925, 903.470 109.924, 908.803 109.745 C 914.136 109.565, 909.500 109.419, 898.500 109.420 C 887.500 109.421, 883.136 109.568, 888.803 109.746 M 890.299 244.745 C 895.139 244.929, 902.789 244.928, 907.299 244.743 C 911.810 244.558, 907.850 244.408, 898.500 244.409 C 889.150 244.410, 885.460 244.562, 890.299 244.745 M 622.815 393.749 C 632.888 393.912, 649.088 393.912, 658.815 393.748 C 668.542 393.585, 660.300 393.451, 640.500 393.451 C 620.700 393.452, 612.742 393.586, 622.815 393.749 M 1104.654 393.750 C 1104.231 394.432, 1135.103 394.417, 1172 393.717 C 1179.975 393.566, 1168.189 393.343, 1145.809 393.221 C 1123.429 393.100, 1104.909 393.337, 1104.654 393.750 M 618.815 401.749 C 628.888 401.912, 645.088 401.912, 654.815 401.748 C 664.542 401.585, 656.300 401.451, 636.500 401.451 C 616.700 401.452, 608.742 401.586, 618.815 401.749 M 1109.655 401.750 C 1109.400 402.163, 1125.755 402.500, 1146 402.500 C 1166.245 402.500, 1182.600 402.163, 1182.345 401.750 C 1182.091 401.337, 1165.735 401, 1146 401 C 1126.265 401, 1109.909 401.337, 1109.655 401.750 M 765.378 447 C 765.378 453.325, 765.541 455.913, 765.739 452.750 C 765.937 449.587, 765.937 444.413, 765.739 441.250 C 765.541 438.087, 765.378 440.675, 765.378 447 M 564.412 457.369 C 564.123 458.122, 564.054 461.160, 564.258 464.119 L 564.630 469.500 564.815 463.298 L 565 457.095 571.250 456.740 L 577.500 456.385 571.219 456.193 C 566.685 456.054, 564.791 456.381, 564.412 457.369 M 783.721 481.715 C 784.559 482.310, 785.044 487.120, 785.265 497.041 L 785.588 511.500 785.544 496.582 C 785.507 484.195, 785.245 481.595, 784 481.256 C 782.919 480.962, 782.842 481.090, 783.721 481.715 M 889.750 481.747 C 896.487 481.920, 907.513 481.920, 914.250 481.747 C 920.987 481.574, 915.475 481.432, 902 481.432 C 888.525 481.432, 883.013 481.574, 889.750 481.747 M 1196.402 513 C 1196.402 521.525, 1196.556 525.013, 1196.743 520.750 C 1196.931 516.487, 1196.931 509.512, 1196.743 505.250 C 1196.556 500.988, 1196.402 504.475, 1196.402 513 M 1076.374 517.500 C 1076.376 523.550, 1076.541 525.896, 1076.740 522.713 C 1076.939 519.531, 1076.937 514.581, 1076.736 511.713 C 1076.535 508.846, 1076.372 511.450, 1076.374 517.500 M 36.310 553.748 C 43.905 553.918, 56.055 553.918, 63.310 553.747 C 70.564 553.576, 64.350 553.437, 49.500 553.438 C 34.650 553.438, 28.714 553.578, 36.310 553.748 M 22.488 731 C 22.488 820.925, 22.606 857.712, 22.750 812.750 C 22.894 767.787, 22.894 694.212, 22.750 649.250 C 22.606 604.287, 22.488 641.075, 22.488 731 M 862.245 624.723 L 870.990 625.078 871.252 724.039 L 871.515 823 871.507 723.750 L 871.500 624.500 862.500 624.434 L 853.500 624.369 862.245 624.723 M 1107.427 625.329 C 1107.147 626.060, 1107.068 630.673, 1107.253 635.579 L 1107.589 644.500 1107.794 634.775 L 1108 625.050 1124.250 624.748 L 1140.500 624.447 1124.219 624.223 C 1111.440 624.048, 1107.828 624.286, 1107.427 625.329 M 1255.433 624.733 C 1266.882 625.033, 1267.904 625.216, 1268.317 627.045 C 1268.679 628.645, 1268.740 628.591, 1268.633 626.765 C 1268.502 624.540, 1268.277 624.499, 1255.748 624.453 L 1242.997 624.407 1255.433 624.733 M 708.480 721.500 C 708.480 774.850, 708.602 796.528, 708.750 769.674 C 708.898 742.820, 708.898 699.170, 708.750 672.674 C 708.602 646.178, 708.480 668.150, 708.480 721.500 M 165.402 642 C 165.402 650.525, 165.556 654.013, 165.743 649.750 C 165.931 645.487, 165.931 638.513, 165.743 634.250 C 165.556 629.987, 165.402 633.475, 165.402 642 M 964.450 669 C 964.450 687.975, 964.584 695.737, 964.748 686.250 C 964.913 676.763, 964.913 661.237, 964.748 651.750 C 964.584 642.263, 964.450 650.025, 964.450 669 M 1286.478 721 C 1286.478 768.575, 1286.600 788.038, 1286.750 764.250 C 1286.899 740.463, 1286.899 701.538, 1286.750 677.750 C 1286.600 653.963, 1286.478 673.425, 1286.478 721 M 1468.419 656 C 1468.419 666.725, 1468.566 671.112, 1468.746 665.750 C 1468.925 660.388, 1468.925 651.612, 1468.746 646.250 C 1468.566 640.888, 1468.419 645.275, 1468.419 656 M 508.423 666.500 C 508.424 678.050, 508.570 682.638, 508.747 676.696 C 508.924 670.753, 508.923 661.303, 508.745 655.696 C 508.567 650.088, 508.422 654.950, 508.423 666.500 M 741.467 712 C 741.467 742.525, 741.594 755.012, 741.749 739.750 C 741.905 724.487, 741.905 699.512, 741.749 684.250 C 741.594 668.987, 741.467 681.475, 741.467 712 M 837.428 679 C 837.428 691.375, 837.571 696.438, 837.747 690.250 C 837.922 684.063, 837.922 673.938, 837.747 667.750 C 837.571 661.563, 837.428 666.625, 837.428 679 M 1403.250 657.747 L 1415 658.063 1415 723.458 C 1415 784.898, 1414.894 788.881, 1413.250 789.311 C 1411.933 789.655, 1412.057 789.797, 1413.750 789.884 L 1416 790 1416 723.500 L 1416 657 1403.750 657.215 L 1391.500 657.430 1403.250 657.747 M 660.432 683 C 660.432 696.475, 660.574 701.987, 660.747 695.250 C 660.920 688.513, 660.920 677.487, 660.747 670.750 C 660.574 664.013, 660.432 669.525, 660.432 683 M 1270.417 681.500 C 1270.418 691.950, 1270.566 696.089, 1270.746 690.698 C 1270.926 685.307, 1270.925 676.757, 1270.744 671.698 C 1270.563 666.639, 1270.416 671.050, 1270.417 681.500 M 693.407 680 C 693.407 689.075, 693.559 692.788, 693.744 688.250 C 693.929 683.712, 693.929 676.288, 693.744 671.750 C 693.559 667.212, 693.407 670.925, 693.407 680 M 1319.457 722 C 1319.457 744.825, 1319.588 754.163, 1319.749 742.750 C 1319.909 731.338, 1319.909 712.663, 1319.749 701.250 C 1319.588 689.837, 1319.457 699.175, 1319.457 722 M 562.442 693.988 C 562.493 703.270, 562.704 704.495, 564.270 704.636 C 565.441 704.742, 565.537 704.639, 564.554 704.331 C 563.399 703.970, 562.992 701.602, 562.726 693.683 L 562.384 683.500 562.442 693.988 M 197.428 711 C 197.428 723.375, 197.571 728.438, 197.747 722.250 C 197.922 716.063, 197.922 705.938, 197.747 699.750 C 197.571 693.563, 197.428 698.625, 197.428 711 M 377.407 707 C 377.407 716.075, 377.559 719.788, 377.744 715.250 C 377.929 710.712, 377.929 703.288, 377.744 698.750 C 377.559 694.212, 377.407 697.925, 377.407 707 M 474.437 717 C 474.437 731.575, 474.577 737.538, 474.747 730.250 C 474.918 722.962, 474.918 711.038, 474.747 703.750 C 474.577 696.462, 474.437 702.425, 474.437 717 M 1573.402 718 C 1573.402 726.525, 1573.556 730.013, 1573.743 725.750 C 1573.931 721.487, 1573.931 714.513, 1573.743 710.250 C 1573.556 705.987, 1573.402 709.475, 1573.402 718 M 1039.116 706.750 L 1039 709 1058.250 708.773 L 1077.500 708.547 1058.819 708.252 C 1042.107 707.987, 1040.090 707.774, 1039.685 706.228 C 1039.351 704.954, 1039.202 705.091, 1039.116 706.750 M 633.292 706.742 C 637.027 706.935, 642.877 706.934, 646.292 706.739 C 649.706 706.545, 646.650 706.387, 639.500 706.389 C 632.350 706.390, 629.556 706.550, 633.292 706.742 M 1199.304 707.747 C 1205.247 707.924, 1214.697 707.923, 1220.304 707.745 C 1225.912 707.567, 1221.050 707.422, 1209.500 707.423 C 1197.950 707.424, 1193.362 707.570, 1199.304 707.747 M 1449.463 755.500 C 1449.463 782.450, 1449.592 793.331, 1449.749 779.681 C 1449.907 766.030, 1449.906 743.980, 1449.749 730.681 C 1449.592 717.381, 1449.463 728.550, 1449.463 755.500 M 917.250 708.749 L 936 709.044 936 724 L 936 738.957 916.750 739.251 L 897.500 739.546 917.250 739.773 L 937 740 937 724.528 L 937 709.056 950.750 708.748 C 958.313 708.578, 949.650 708.442, 931.500 708.446 C 913.350 708.450, 906.938 708.586, 917.250 708.749 M 564.438 765.500 C 564.437 780.350, 564.576 786.564, 564.747 779.310 C 564.918 772.055, 564.918 759.905, 564.748 752.310 C 564.578 744.714, 564.438 750.650, 564.438 765.500 M 605.250 739.749 C 617.212 739.908, 636.788 739.908, 648.750 739.749 C 660.712 739.589, 650.925 739.459, 627 739.459 C 603.075 739.459, 593.288 739.589, 605.250 739.749 M 961.738 739.719 L 963.975 740.130 964.256 775.815 L 964.537 811.500 964.519 775.500 L 964.500 739.500 962 739.404 C 959.850 739.321, 959.813 739.365, 961.738 739.719 M 837.382 771.500 C 837.384 778.100, 837.546 780.670, 837.741 777.211 C 837.937 773.752, 837.936 768.352, 837.738 765.211 C 837.540 762.070, 837.380 764.900, 837.382 771.500 M 508.397 792 C 508.397 799.975, 508.553 803.237, 508.743 799.250 C 508.932 795.263, 508.932 788.737, 508.743 784.750 C 508.553 780.763, 508.397 784.025, 508.397 792 M 300.489 797.250 L 283.500 814.500 300.750 797.511 C 310.238 788.167, 318 780.405, 318 780.261 C 318 779.548, 316.273 781.224, 300.489 797.250 M 434.287 790.740 C 437.469 790.939, 442.419 790.937, 445.287 790.736 C 448.154 790.535, 445.550 790.372, 439.500 790.374 C 433.450 790.376, 431.104 790.541, 434.287 790.740 M 776.815 790.749 C 786.888 790.912, 803.088 790.912, 812.815 790.748 C 822.542 790.585, 814.300 790.451, 794.500 790.451 C 774.700 790.452, 766.742 790.586, 776.815 790.749 M 1542.186 790.748 C 1551.363 790.913, 1566.663 790.913, 1576.186 790.749 C 1585.709 790.584, 1578.200 790.449, 1559.500 790.449 C 1540.800 790.449, 1533.009 790.583, 1542.186 790.748 M 165.461 807.749 L 165.500 823.500 173 823.563 L 180.500 823.626 173.275 823.271 L 166.050 822.917 165.736 807.457 L 165.421 791.998 165.461 807.749 M 1107.382 811.500 C 1107.384 818.100, 1107.546 820.670, 1107.741 817.211 C 1107.937 813.752, 1107.936 808.352, 1107.738 805.211 C 1107.540 802.070, 1107.380 804.900, 1107.382 811.500 M 345.442 813 C 345.500 823.491, 345.502 823.500, 348 823.596 C 350.104 823.678, 350.149 823.628, 348.284 823.283 C 346.196 822.897, 346.049 822.287, 345.726 812.687 L 345.384 802.500 345.442 813 M 544.784 820.738 C 547.689 820.941, 552.189 820.939, 554.784 820.734 C 557.378 820.528, 555 820.363, 549.500 820.365 C 544 820.368, 541.878 820.536, 544.784 820.738 M 490.287 823.740 C 493.469 823.939, 498.419 823.937, 501.287 823.736 C 504.154 823.535, 501.550 823.372, 495.500 823.374 C 489.450 823.376, 487.104 823.541, 490.287 823.740 M 450.332 894.750 C 678.490 894.889, 1051.540 894.889, 1279.332 894.750 C 1507.125 894.611, 1320.450 894.498, 864.500 894.498 C 408.550 894.498, 222.175 894.611, 450.332 894.750 M 252.807 914.747 C 259.576 914.921, 270.376 914.920, 276.807 914.746 C 283.238 914.572, 277.700 914.431, 264.500 914.431 C 251.300 914.432, 246.038 914.574, 252.807 914.747 M 782.330 914.750 C 844.937 914.892, 947.087 914.892, 1009.330 914.750 C 1071.574 914.608, 1020.350 914.491, 895.500 914.491 C 770.650 914.491, 719.724 914.608, 782.330 914.750 M 1512.250 914.746 C 1518.162 914.923, 1527.838 914.923, 1533.750 914.746 C 1539.662 914.569, 1534.825 914.425, 1523 914.425 C 1511.175 914.425, 1506.338 914.569, 1512.250 914.746 M 1021.456 1017.255 C 1021.191 1017.946, 1021.098 1034.483, 1021.250 1054.005 L 1021.526 1089.500 1021.763 1053.267 L 1022 1017.035 1046.750 1016.749 L 1071.500 1016.463 1046.719 1016.232 C 1027.588 1016.053, 1021.827 1016.286, 1021.456 1017.255 M 1088.500 1016.636 C 1095.491 1017.373, 1105.780 1017.443, 1105.349 1016.750 C 1105.092 1016.337, 1100.521 1016.072, 1095.191 1016.160 C 1089.861 1016.248, 1086.850 1016.462, 1088.500 1016.636 M 1139.250 1016.735 C 1141.862 1016.941, 1146.138 1016.941, 1148.750 1016.735 C 1151.362 1016.529, 1149.225 1016.360, 1144 1016.360 C 1138.775 1016.360, 1136.638 1016.529, 1139.250 1016.735 M 1153.450 1055 C 1153.450 1073.975, 1153.584 1081.737, 1153.748 1072.250 C 1153.913 1062.763, 1153.913 1047.237, 1153.748 1037.750 C 1153.584 1028.263, 1153.450 1036.025, 1153.450 1055 M 863.389 1078.500 C 863.390 1085.650, 863.550 1088.444, 863.742 1084.708 C 863.935 1080.973, 863.934 1075.123, 863.739 1071.708 C 863.545 1068.294, 863.387 1071.350, 863.389 1078.500 M 889.199 1205.744 C 893.984 1205.927, 902.084 1205.928, 907.199 1205.746 C 912.315 1205.564, 908.400 1205.414, 898.500 1205.413 C 888.600 1205.412, 884.415 1205.561, 889.199 1205.744 M 903.250 1225.743 C 907.513 1225.931, 914.487 1225.931, 918.750 1225.743 C 923.013 1225.556, 919.525 1225.402, 911 1225.402 C 902.475 1225.402, 898.987 1225.556, 903.250 1225.743 M 895.360 1250 C 895.360 1255.225, 895.529 1257.362, 895.735 1254.750 C 895.941 1252.138, 895.941 1247.862, 895.735 1245.250 C 895.529 1242.638, 895.360 1244.775, 895.360 1250 M 920.360 1266 C 920.360 1271.225, 920.529 1273.362, 920.735 1270.750 C 920.941 1268.138, 920.941 1263.862, 920.735 1261.250 C 920.529 1258.638, 920.360 1260.775, 920.360 1266 M 948.389 1318.500 C 948.390 1325.650, 948.550 1328.444, 948.742 1324.708 C 948.935 1320.973, 948.934 1315.123, 948.739 1311.708 C 948.545 1308.294, 948.387 1311.350, 948.389 1318.500 M 880.116 1328.206 C 880.002 1330.855, 879.845 1330.920, 872.750 1331.257 L 865.500 1331.603 872.781 1331.801 C 880.425 1332.010, 881.727 1331.271, 880.701 1327.308 C 880.389 1326.106, 880.193 1326.408, 880.116 1328.206 M 888.250 1340.746 C 894.163 1340.923, 903.837 1340.923, 909.750 1340.746 C 915.663 1340.569, 910.825 1340.425, 899 1340.425 C 887.175 1340.425, 882.337 1340.569, 888.250 1340.746 M 884.803 1426.746 C 890.470 1426.925, 899.470 1426.924, 904.803 1426.745 C 910.136 1426.565, 905.500 1426.419, 894.500 1426.420 C 883.500 1426.421, 879.136 1426.568, 884.803 1426.746" stroke="none" fill="#ed7c0e" fill-rule="evenodd"/><path d="M 862 21.986 C 763.533 26.929, 672.768 50.202, 585.500 92.882 C 425.730 171.020, 301.423 306.752, 237.699 472.647 C 231.140 489.722, 218 529.062, 218 531.623 C 218 532.802, 225.425 532.979, 265.734 532.760 L 313.467 532.500 318.172 519.238 C 363.023 392.810, 448.736 283.788, 561.524 209.704 C 709.277 112.655, 892.416 84.196, 1063.928 131.634 C 1143.145 153.544, 1220.271 193.179, 1284.431 244.951 C 1373.540 316.854, 1440.225 410.523, 1478.998 518.250 L 1484.307 533 1527.653 533 C 1551.494 533, 1571 532.796, 1571 532.546 C 1571 530.486, 1559.539 495.065, 1554.484 481.500 C 1506.983 354.046, 1424.916 243.937, 1316.500 162.198 C 1209.871 81.806, 1083.829 34.251, 949 23.544 C 925.425 21.672, 883.289 20.918, 862 21.986 M 953 132.798 C 953 133.237, 949.891 152.475, 946.092 175.548 C 942.292 198.622, 939.030 219.051, 938.842 220.946 L 938.500 224.392 972.962 230.151 C 991.916 233.318, 1007.619 235.714, 1007.858 235.476 C 1008.097 235.237, 1008.841 231.844, 1009.511 227.937 C 1010.400 222.755, 1010.428 220.740, 1009.615 220.490 C 1009.002 220.301, 997.801 218.445, 984.724 216.366 C 971.647 214.287, 960.531 212.328, 960.021 212.013 C 959.148 211.473, 962.351 188.316, 963.451 187.216 C 963.841 186.826, 996.667 191.696, 1007.088 193.690 C 1009.599 194.170, 1009.712 193.969, 1010.870 186.958 C 1011.526 182.983, 1011.827 179.494, 1011.538 179.204 C 1011.248 178.915, 1001.106 177.023, 989 175 C 976.894 172.977, 966.717 171.051, 966.386 170.720 C 965.895 170.229, 968.671 150.928, 969.310 150.385 C 969.415 150.297, 980.415 152.046, 993.757 154.272 C 1007.098 156.499, 1018.301 158.032, 1018.653 157.681 C 1019.393 156.940, 1021.903 143, 1021.296 143 C 1021.073 143, 1006.090 140.525, 988 137.500 C 952.381 131.544, 953 131.627, 953 132.798 M 796 139.917 C 790.775 140.874, 781.663 142.501, 775.750 143.531 C 766.179 145.200, 765.002 145.630, 765.020 147.453 C 765.045 150.003, 780.748 237.081, 781.278 237.612 C 782.165 238.498, 799 234.701, 799 233.614 C 799 232.972, 797.689 225.259, 796.087 216.473 C 794.484 207.688, 793.332 200.340, 793.526 200.144 C 793.719 199.949, 799.275 198.716, 805.871 197.406 C 822.607 194.080, 827.865 191.921, 833.251 186.163 C 838.571 180.475, 840.435 175.599, 840.383 167.500 C 840.305 155.315, 834.775 145.060, 825.895 140.635 C 819.471 137.434, 810.703 137.223, 796 139.917 M 795.578 155.856 C 790.670 156.760, 786.481 158.029, 786.269 158.676 C 785.882 159.853, 789.844 183.164, 790.552 183.881 C 791.342 184.680, 809.691 180.695, 813.602 178.874 C 819.061 176.333, 821.471 171.871, 820.765 165.609 C 820.170 160.328, 818.002 157.360, 813.282 155.362 C 809.340 153.694, 806.958 153.760, 795.578 155.856 M 1124.574 216.102 C 1115.265 233.194, 1106.795 248.263, 1105.751 249.589 C 1103.373 252.612, 1101.459 252.618, 1095.816 249.617 L 1091.333 247.233 1088.167 252.994 C 1086.425 256.162, 1085.008 259.147, 1085.017 259.627 C 1085.042 260.840, 1096.680 267.528, 1101.315 268.992 C 1108.696 271.325, 1114.933 268.318, 1120.999 259.502 C 1122.614 257.154, 1129.849 244.493, 1137.077 231.367 C 1144.305 218.240, 1150.324 207.383, 1150.453 207.240 C 1150.828 206.822, 1175 220.442, 1175 221.072 C 1175 221.386, 1166.670 236.869, 1156.490 255.478 C 1146.309 274.087, 1138.097 289.427, 1138.240 289.567 C 1139.184 290.489, 1154.173 298.158, 1154.457 297.865 C 1154.652 297.664, 1164.767 279.304, 1176.935 257.065 C 1194.559 224.853, 1198.798 216.392, 1197.779 215.461 C 1196.123 213.948, 1143.379 184.996, 1142.311 185.013 C 1141.865 185.020, 1133.883 199.010, 1124.574 216.102 M 629.108 197.082 C 617.973 199.268, 603.619 208.496, 597.642 217.309 C 589.845 228.805, 588.763 245.670, 594.892 260.191 C 603.932 281.612, 617.754 293.017, 635.655 293.828 C 656.505 294.772, 676.715 281.769, 683.060 263.327 C 687.030 251.788, 685.171 237.900, 677.747 223.630 C 667.028 203.027, 648.984 193.178, 629.108 197.082 M 628.994 213.934 C 613.644 218.603, 606.194 231.727, 610.460 246.583 C 613.957 258.763, 622.589 270.664, 630.757 274.568 C 639.713 278.848, 650.542 277.119, 658.218 270.184 C 667.947 261.394, 669.031 249.715, 661.535 234.430 C 653.527 218.098, 641.079 210.258, 628.994 213.934 M 856.414 246.456 C 700.652 261.263, 565.301 346.501, 485.566 480 C 477.108 494.160, 459 529.486, 459 531.825 C 459 532.723, 561.596 532.997, 894.750 532.989 C 1134.412 532.983, 1332.188 532.699, 1334.250 532.358 C 1336.313 532.017, 1338 531.294, 1338 530.751 C 1338 528.725, 1321.845 497.004, 1313.936 483.500 C 1265.215 400.315, 1193.543 333.991, 1107.500 292.471 C 1057.888 268.530, 1008.078 254.160, 951.500 247.464 C 932.437 245.208, 875.851 244.608, 856.414 246.456 M 828.164 321.250 C 827.065 323.038, 819.683 337.775, 811.761 354 C 796.115 386.041, 795.948 386.279, 782.904 394.996 C 774.529 400.593, 770.267 404.642, 767.884 409.265 C 766.134 412.661, 765.922 415.511, 765.722 438.265 C 765.396 475.360, 766.994 480.979, 777.885 481.015 C 780.423 481.024, 783.054 481.382, 783.731 481.812 C 784.633 482.386, 785.033 488.715, 785.231 505.547 L 785.500 528.500 798.922 528.780 C 808.989 528.990, 812.548 528.740, 813.157 527.780 C 813.604 527.076, 813.976 516.344, 813.985 503.931 L 814 481.362 893.515 481.496 C 941.368 481.577, 973.370 482.003, 973.882 482.565 C 974.351 483.079, 975.975 485.660, 977.492 488.300 L 980.249 493.101 977.761 492.476 C 975.736 491.968, 975.156 492.284, 974.650 494.176 C 973.846 497.176, 973.810 525.342, 974.607 527.418 C 975.120 528.756, 977.361 529, 989.107 529 L 1003 529 1003 505.519 L 1003 482.038 1005.250 481.582 C 1006.487 481.332, 1010.177 480.859, 1013.449 480.531 C 1016.721 480.204, 1019.563 479.771, 1019.765 479.569 C 1019.967 479.367, 1020.761 475.669, 1021.531 471.351 C 1022.480 466.024, 1022.934 455.462, 1022.943 438.500 C 1022.960 406.502, 1022.900 406.352, 1005.784 394.926 C 992.947 386.356, 992.246 385.341, 974.974 350.250 L 959.099 318 894.631 318 L 830.163 318 828.164 321.250 M 825.500 355 L 812.992 380 894.496 380 C 939.323 380, 975.997 379.887, 975.994 379.750 C 975.991 379.613, 970.459 368.716, 963.701 355.535 C 953.713 336.054, 950.954 331.442, 948.957 330.885 C 947.606 330.508, 922.089 330.155, 892.254 330.100 L 838.008 330 825.500 355 M 585.663 413.750 C 574.863 435.061, 573.140 437.439, 563.708 444.044 C 556.804 448.878, 555.291 451.909, 554.493 462.500 C 553.933 469.938, 555.397 495.730, 556.439 496.772 C 556.598 496.931, 558.995 497.331, 561.765 497.659 L 566.801 498.255 567.522 513.628 L 568.242 529 577.121 529 L 586 529 586 513.500 L 586 498 626.750 498.117 C 649.163 498.182, 672 498.520, 677.500 498.867 L 687.500 499.500 687.777 514.250 L 688.053 529 693.902 529 C 697.118 529, 701.156 528.719, 702.875 528.375 L 706 527.750 706 513.014 L 706 498.279 711.173 497.666 C 714.019 497.329, 716.673 496.704, 717.072 496.277 C 718.003 495.278, 720.007 474.351, 719.976 465.947 C 719.963 462.401, 719.537 457.700, 719.028 455.500 C 718.089 451.434, 717.590 450.887, 704.227 439.277 C 698.043 433.903, 697.278 432.616, 685.653 408 C 683.705 403.875, 680.703 398.813, 678.983 396.750 L 675.854 393 636.016 393 L 596.177 393 585.663 413.750 M 1094.601 413.750 C 1083.834 435.213, 1082.696 436.778, 1072.211 444.550 C 1063.805 450.781, 1063.890 450.503, 1063.863 471.801 C 1063.850 482.086, 1064.289 491.670, 1064.838 493.101 C 1065.542 494.932, 1067.436 496.351, 1071.244 497.896 L 1076.652 500.091 1076.192 513.654 C 1075.824 524.493, 1076.010 527.392, 1077.116 528.093 C 1077.877 528.575, 1082.213 528.976, 1086.750 528.985 L 1095 529 1095 513.500 L 1095 498 1145.500 498 L 1196 498 1196 512.910 L 1196 527.820 1204.416 528.521 C 1209.044 528.907, 1213.319 528.921, 1213.916 528.552 C 1214.616 528.119, 1215 522.635, 1215 513.070 L 1215 498.258 1220.875 497.594 C 1226.720 496.932, 1226.753 496.910, 1227.364 493.214 C 1228.232 487.966, 1228.122 451.712, 1227.235 450.479 C 1226.831 449.918, 1222.419 446.446, 1217.432 442.764 L 1208.364 436.070 1199.240 417.785 C 1194.222 407.728, 1189.197 398.038, 1188.073 396.250 L 1186.029 393 1145.519 393 L 1105.009 393 1094.601 413.750 M 595.125 413.750 C 591.886 420.212, 588.530 427.188, 587.669 429.250 L 586.102 433 636.551 433 C 671.753 433, 687 432.676, 687 431.929 C 687 431.340, 683.773 424.365, 679.829 416.429 L 672.657 402 636.836 402 L 601.015 402 595.125 413.750 M 1102.506 416.988 C 1098.378 425.231, 1095 432.206, 1095 432.488 C 1095 432.769, 1117.950 433, 1146 433 C 1174.050 433, 1197 432.769, 1197 432.488 C 1197 432.206, 1193.622 425.231, 1189.494 416.988 L 1181.987 402 1146 402 L 1110.013 402 1102.506 416.988 M 786.430 418.943 C 784.080 419.918, 781 424.174, 781 426.445 C 781 427.278, 781.715 429.747, 782.589 431.932 C 784.030 435.532, 784.599 435.967, 788.656 436.576 C 792.666 437.177, 793.438 436.954, 796.066 434.436 C 798.574 432.034, 799 430.871, 799 426.434 C 799 421.701, 798.757 421.147, 796.250 420.156 C 791.846 418.415, 788.652 418.021, 786.430 418.943 M 993.880 418.664 C 992.989 418.902, 991.487 420.811, 990.542 422.907 C 988.874 426.605, 988.890 426.874, 991.083 431.972 L 993.343 437.225 997.922 436.607 C 1004.224 435.756, 1007.424 433.194, 1007.808 428.693 C 1008.213 423.945, 1006.598 421.148, 1002.452 419.415 C 999.095 418.013, 997.007 417.830, 993.880 418.664 M 698 458 C 695.787 460.213, 695.503 462.564, 696.980 466.447 C 698.458 470.336, 701.875 471.497, 706.346 469.629 C 710.480 467.902, 711.509 466.163, 710.582 462.472 C 709.070 456.448, 702.048 453.952, 698 458 M 1075.636 457.277 C 1074.098 458.402, 1072.091 464.219, 1072.024 467.750 C 1072.007 468.646, 1074.233 469, 1079.894 469 L 1087.787 469 1086.838 464.750 C 1085.469 458.624, 1083.469 456, 1080.168 456 C 1078.636 456, 1076.597 456.575, 1075.636 457.277 M 1206.528 459.375 L 1203.880 462.846 1206.190 466.410 C 1208.671 470.240, 1210.197 470.628, 1216.199 468.962 L 1219.898 467.934 1219.309 462.717 C 1218.985 459.848, 1218.670 457.445, 1218.610 457.378 C 1218.549 457.311, 1216.402 456.952, 1213.838 456.580 C 1209.369 455.932, 1209.065 456.048, 1206.528 459.375 M 565 463 L 565 469 571 469 L 577 469 577 463 L 577 457 571 457 L 565 457 565 463 M 220.553 925.750 C 237.603 980.187, 257.495 1026.162, 284.036 1072.470 C 315.554 1127.463, 352.071 1175.204, 396.933 1220.067 C 519.383 1342.516, 677.426 1413.828, 851.331 1425.098 C 874.625 1426.607, 937.988 1425.716, 959 1423.584 C 1019.500 1417.444, 1076.556 1404.964, 1128.288 1386.557 C 1253.318 1342.069, 1361.652 1264.748, 1445.198 1160.371 C 1486.755 1108.452, 1521.652 1048.025, 1548.210 982 C 1554.416 966.571, 1571 918.514, 1571 915.959 C 1571 915.359, 1553.858 915.051, 1525.250 915.136 C 1500.088 915.211, 1480.513 915.467, 1481.750 915.706 C 1482.987 915.944, 1484 916.562, 1484 917.079 C 1484 917.596, 1481.282 925.448, 1477.960 934.528 C 1440.125 1037.946, 1377.217 1127.568, 1292.931 1198.128 C 1203.459 1273.031, 1092.105 1321.594, 977 1335.912 C 946.387 1339.719, 933.973 1340.425, 898 1340.404 C 841.625 1340.370, 802.430 1335.631, 749 1322.388 C 600.841 1285.667, 470.911 1193.716, 385.301 1065 C 357.449 1023.124, 334.032 976.229, 317.978 930.181 C 313.973 918.695, 313.530 917.901, 311.410 918.433 C 309.717 918.858, 308.974 918.492, 308.501 917.002 C 307.877 915.038, 307.002 915, 262.526 915 L 217.186 915 220.553 925.750 M 392.741 915.989 L 457.983 916.500 464.287 930 C 480.685 965.117, 502.810 999.786, 529.486 1032.165 C 543.434 1049.095, 573.643 1079.426, 590.500 1093.423 C 664.306 1154.712, 748.814 1190.806, 846 1202.551 C 875.379 1206.101, 927.180 1205.592, 960 1201.431 C 1053.983 1189.515, 1142.896 1149.462, 1214.740 1086.678 C 1262.941 1044.555, 1302.015 993.498, 1330.570 935.326 C 1335.206 925.881, 1339 917.730, 1339 917.212 C 1339 916.695, 1336.912 915.986, 1334.360 915.636 C 1331.809 915.286, 1104.221 915.108, 828.610 915.239 C 553 915.371, 356.859 915.708, 392.741 915.989 M 1376.250 915.749 C 1393.712 915.903, 1422.287 915.903, 1439.750 915.749 C 1457.212 915.596, 1442.925 915.471, 1408 915.471 C 1373.075 915.471, 1358.787 915.596, 1376.250 915.749 M 686.780 959.030 C 666.553 962.438, 652.981 980.045, 653.012 1002.839 C 653.032 1017.780, 657.293 1028.412, 666.711 1037.019 C 679.349 1048.569, 697.222 1049.560, 710.483 1039.445 C 714.728 1036.207, 714.761 1036.372, 712.479 1049.459 C 709.774 1064.974, 704.044 1072, 694.097 1072 C 686.902 1072, 682.368 1068.218, 680.609 1060.750 C 679.857 1057.554, 679.926 1057.562, 665.932 1059.153 L 655.793 1060.306 656.444 1064.403 C 658.835 1079.472, 670.612 1090.824, 686.131 1093.019 C 710.860 1096.518, 731.387 1081.081, 737.681 1054.254 C 739.150 1047.994, 739.500 1042.262, 739.500 1024.500 C 739.500 1004.622, 739.282 1001.748, 737.240 994.701 C 731.340 974.347, 719.500 962.186, 702.566 959.086 C 695.969 957.878, 693.666 957.870, 686.780 959.030 M 787 959.310 C 769.539 963.270, 757.611 976.621, 754.889 995.250 C 751.829 1016.199, 760.932 1035.250, 777.832 1043.263 C 783.116 1045.769, 785.431 1046.271, 791.832 1046.303 C 800.579 1046.347, 806.275 1044.331, 812.262 1039.075 L 815.922 1035.861 815.379 1041.181 C 814.424 1050.516, 811.141 1062.126, 808.461 1065.639 C 801.027 1075.386, 786.627 1073.874, 783.024 1062.967 C 782.213 1060.510, 781.449 1058.337, 781.328 1058.137 C 780.907 1057.445, 757 1060.300, 757 1061.043 C 757 1061.453, 757.889 1064.668, 758.976 1068.187 C 763.503 1082.843, 772.743 1090.839, 787.581 1092.940 C 801.927 1094.972, 817.589 1089.668, 826.581 1079.734 C 836.104 1069.213, 840.798 1054.266, 841.732 1031.485 C 843.029 999.863, 836.765 979.164, 822.344 967.415 C 813.093 959.878, 798.872 956.617, 787 959.310 M 948 959.070 C 934.854 961.335, 921.690 971.714, 916.083 984.234 C 910.573 996.537, 909.500 1003.425, 909.500 1026.500 C 909.500 1043.295, 909.864 1049.053, 911.319 1055.254 C 916.321 1076.573, 929.850 1090.415, 948.258 1093.046 C 965.686 1095.537, 982.916 1087.102, 990.764 1072.237 C 995.031 1064.153, 996.364 1057.003, 995.797 1045.231 C 995.391 1036.795, 994.846 1034.267, 992.224 1028.665 C 988.118 1019.891, 981.319 1012.775, 973.244 1008.799 C 967.556 1005.999, 965.798 1005.619, 958.639 1005.645 C 949.280 1005.678, 944.996 1007.202, 938.978 1012.639 C 934.477 1016.705, 934.498 1016.756, 936.076 1005.406 C 937.544 994.853, 940.366 987.764, 944.568 984.075 C 948.718 980.431, 951.617 979.584, 957.622 980.261 C 963.236 980.894, 966.744 984.014, 968.275 989.738 C 969.578 994.609, 968.656 994.419, 983.293 992.834 L 994.085 991.665 993.421 988.582 C 989.618 970.934, 977.249 959.901, 959.801 958.594 C 956.335 958.334, 951.025 958.549, 948 959.070 M 687.418 980.969 C 684.206 982.268, 680.173 987.643, 678.919 992.295 C 678.296 994.608, 677.963 1000.550, 678.179 1005.500 C 678.680 1016.964, 681.302 1022.392, 687.962 1025.750 C 690.416 1026.987, 693.583 1028, 695 1028 C 699.830 1028, 706.316 1023.830, 709 1019 C 711.178 1015.080, 711.499 1013.275, 711.492 1005 C 711.486 997.035, 711.101 994.718, 709.110 990.660 C 705.840 983.997, 700.150 979.980, 694.100 980.063 C 691.570 980.098, 688.563 980.506, 687.418 980.969 M 787.182 982.030 C 782.024 985.175, 779.632 991.600, 779.560 1002.500 C 779.517 1008.917, 780.021 1012.850, 781.315 1016.203 C 787.165 1031.364, 805.278 1031.551, 811.558 1016.516 C 813.511 1011.841, 813.769 1000.544, 812.066 994.237 C 810.780 989.472, 806.149 983.645, 801.901 981.449 C 797.877 979.368, 791.110 979.635, 787.182 982.030 M 1021.667 1016.667 C 1021.300 1017.033, 1021 1033.458, 1021 1053.167 L 1021 1089 1028.500 1089 L 1036 1089 1036 1073.391 L 1036 1057.783 1051.250 1058.141 L 1066.500 1058.500 1066.500 1052 L 1066.500 1045.500 1051.250 1045.859 L 1036 1046.217 1036 1037.609 L 1036 1029 1053.411 1029 L 1070.822 1029 1071.161 1022.913 C 1071.348 1019.566, 1071.313 1016.641, 1071.083 1016.413 C 1070.376 1015.712, 1022.375 1015.958, 1021.667 1016.667 M 1084.250 1016.645 C 1083.283 1017.049, 1083 1025.295, 1083 1053.083 L 1083 1089 1090 1089 L 1097 1089 1097.063 1063.250 C 1097.110 1044.407, 1097.406 1038.171, 1098.169 1040 C 1098.742 1041.375, 1101.804 1052.850, 1104.973 1065.500 L 1110.736 1088.500 1118.181 1088.789 L 1125.627 1089.077 1131.919 1064.289 C 1135.381 1050.655, 1138.601 1038.825, 1139.076 1038 C 1139.577 1037.129, 1139.952 1047.510, 1139.970 1062.750 L 1140 1089 1147.012 1089 L 1154.025 1089 1153.762 1052.750 L 1153.500 1016.500 1147 1016.181 C 1143.425 1016.006, 1138.245 1016.137, 1135.488 1016.473 L 1130.476 1017.084 1128.746 1024.792 C 1125.921 1037.385, 1118.712 1064.045, 1118.256 1063.590 C 1118.024 1063.357, 1115.050 1052.667, 1111.648 1039.834 L 1105.461 1016.500 1095.481 1016.312 C 1089.991 1016.209, 1084.938 1016.359, 1084.250 1016.645 M 947.346 1025.930 C 944.386 1027.274, 942.374 1029.208, 940.346 1032.658 C 937.756 1037.064, 937.500 1038.356, 937.504 1047 C 937.508 1055.640, 937.775 1056.982, 940.453 1061.824 C 944.616 1069.349, 948.005 1071.500, 955.694 1071.500 C 961.365 1071.500, 962.181 1071.217, 965.341 1068.154 C 969.569 1064.056, 971.342 1058.224, 971.273 1048.635 C 971.209 1039.657, 969.691 1033.975, 966.270 1029.909 C 961.319 1024.026, 954.636 1022.620, 947.346 1025.930 M 1279.644 1050.031 C 1269.135 1054.400, 1258.369 1064.458, 1253.459 1074.495 C 1243.752 1094.335, 1255.986 1121.328, 1279.934 1132.909 C 1290.132 1137.840, 1296.475 1138.760, 1305.099 1136.559 C 1326.739 1131.036, 1342.714 1108.196, 1339.138 1087.895 C 1336.892 1075.145, 1323.813 1059.478, 1309.509 1052.405 C 1302.424 1048.902, 1300.732 1048.475, 1293.056 1048.256 C 1286.342 1048.065, 1283.455 1048.447, 1279.644 1050.031 M 1285 1065.952 C 1270.166 1068.879, 1262.684 1084.549, 1269.602 1098.201 C 1273.213 1105.327, 1281.237 1113.480, 1287.801 1116.691 C 1295.965 1120.685, 1304.869 1120.604, 1311.551 1116.474 C 1317.658 1112.699, 1321.833 1106.208, 1322.663 1099.197 C 1323.196 1094.701, 1322.864 1093.167, 1320.187 1087.728 C 1312.967 1073.063, 1297.493 1063.486, 1285 1065.952 M 863 1078.500 L 863 1091 876 1091 L 889 1091 889 1078.500 L 889 1066 876 1066 L 863 1066 863 1078.500 M 500.792 1094.250 C 487.921 1107.588, 475.090 1120.978, 472.280 1124.006 L 467.172 1129.512 472.074 1132.756 C 480.397 1138.263, 484.435 1136.862, 496.382 1124.318 L 502.876 1117.500 510.188 1124.637 C 524.932 1139.029, 529.014 1140.834, 543.242 1139.250 L 549.983 1138.500 557.476 1130 L 564.969 1121.500 564.984 1114.487 C 564.999 1108.053, 564.696 1107.019, 561.319 1101.987 C 556.941 1095.461, 535.651 1073.403, 531.800 1071.403 C 525.900 1068.338, 525.550 1068.597, 500.792 1094.250 M 522.105 1097.199 C 518.747 1101.159, 516 1105.120, 516 1106.003 C 516 1108.903, 521.814 1116.848, 525.928 1119.571 C 528.148 1121.040, 531.932 1122.463, 534.338 1122.735 C 538.124 1123.161, 539.150 1122.837, 541.955 1120.331 C 545.934 1116.777, 547.143 1110.112, 544.676 1105.341 C 543.088 1102.269, 530.605 1090, 529.068 1090 C 528.596 1090, 525.463 1093.240, 522.105 1097.199 M 1120.500 1171.911 C 1113.126 1174.442, 1112.478 1174.885, 1112.217 1177.578 C 1110.448 1195.803, 1106.830 1230.344, 1106.373 1233.356 L 1105.788 1237.212 1102.819 1232.856 C 1099.643 1228.198, 1090.180 1209.569, 1085.722 1199.200 L 1083.013 1192.899 1076.757 1193.605 C 1064.963 1194.936, 1065.021 1192.580, 1076.163 1217.500 C 1086.759 1241.198, 1103.050 1275, 1103.876 1275 C 1104.240 1275, 1116.322 1268.131, 1118.690 1266.577 C 1118.795 1266.509, 1120.243 1255.558, 1121.908 1242.243 C 1125.453 1213.895, 1126.933 1204.841, 1127.923 1205.452 C 1128.318 1205.697, 1133.059 1215.375, 1138.458 1226.960 L 1148.274 1248.024 1156.387 1247.375 C 1160.849 1247.017, 1164.658 1246.592, 1164.851 1246.428 C 1165.629 1245.770, 1130.456 1169.602, 1129.250 1169.333 C 1128.838 1169.241, 1124.900 1170.401, 1120.500 1171.911 M 673.817 1210.644 C 661.385 1223.765, 647.548 1238.748, 643.069 1243.939 C 633.991 1254.460, 633.952 1253.715, 643.750 1257.086 C 650.992 1259.578, 653.635 1258.639, 658.519 1251.840 C 660.465 1249.131, 662.760 1246.645, 663.619 1246.316 C 665.441 1245.617, 680.494 1250.453, 690.307 1254.890 L 697.115 1257.968 696.926 1268.104 L 696.738 1278.241 704.119 1281.117 C 708.179 1282.698, 712.063 1283.994, 712.750 1283.996 C 713.732 1283.999, 714 1274.128, 714 1237.964 L 714 1191.929 709.250 1189.850 C 706.638 1188.707, 702.682 1187.550, 700.460 1187.279 L 696.420 1186.787 673.817 1210.644 M 691.157 1215.553 C 685.101 1222.293, 677.571 1232.905, 678.316 1233.649 C 678.589 1233.922, 682.791 1235.620, 687.656 1237.424 L 696.500 1240.703 696.791 1232.804 C 696.951 1228.459, 696.951 1221.463, 696.791 1217.256 L 696.500 1209.606 691.157 1215.553 M 905.750 1225.741 C 880.228 1226.008, 877.994 1226.171, 877.930 1227.766 C 877.891 1228.720, 877.519 1242.100, 877.103 1257.500 C 876.427 1282.569, 876.133 1285.981, 874.300 1290.093 C 872.184 1294.836, 867.473 1300, 865.260 1300 C 864.301 1300, 864 1303.700, 864 1315.500 L 864 1331 872.141 1331 L 880.282 1331 879.754 1322.532 C 879.300 1315.268, 879.458 1313.992, 880.863 1313.560 C 884.536 1312.432, 905.359 1311.002, 918.128 1311.001 L 931.757 1311 932.884 1318.575 C 934.386 1328.677, 935.182 1329.997, 939.785 1330.014 C 941.828 1330.021, 944.513 1330.299, 945.750 1330.630 L 948 1331.233 947.997 1314.867 L 947.995 1298.500 944.247 1296.499 L 940.500 1294.498 939.293 1270.999 C 937.259 1231.409, 936.704 1225.528, 935 1225.487 C 934.175 1225.467, 921.013 1225.582, 905.750 1225.741 M 897.250 1240.643 C 895.070 1241.124, 895 1241.510, 895 1253.098 C 895 1264.106, 892.662 1292.152, 891.403 1296.250 C 890.933 1297.780, 891.609 1298, 896.779 1298 C 900.032 1298, 906.870 1297.704, 911.975 1297.341 L 921.257 1296.682 920.810 1269.356 C 920.564 1254.326, 920.159 1241.825, 919.910 1241.576 C 919.214 1240.880, 899.798 1240.081, 897.250 1240.643" stroke="none" fill="#fbfbfb" fill-rule="evenodd"/></svg>