<svg xmlns="http://www.w3.org/2000/svg" width="888" height="888" viewBox="0 0 888 888" version="1.1"><path d="M 62.465 217.715 C 60.834 220.859, 58.933 224.045, 58.241 224.796 C 57.548 225.547, 57.214 226.537, 57.497 226.995 C 57.781 227.454, 57.608 227.980, 57.113 228.165 C 55.836 228.641, 50 238.797, 50 240.544 C 50 241.345, 49.550 242, 49 242 C 48.450 242, 47.986 242.563, 47.969 243.250 C 47.952 243.938, 45.943 248.506, 43.504 253.402 C 41.065 258.299, 39.306 262.686, 39.594 263.152 C 39.882 263.619, 39.696 264, 39.180 264 C 38.183 264, 35.361 269.985, 35.762 271.250 C 35.893 271.663, 35.550 272, 35 272 C 34.450 272, 34 272.693, 34 273.540 C 34 274.387, 33.096 276.852, 31.991 279.018 C 30.885 281.185, 29.887 284.092, 29.772 285.479 C 29.658 286.865, 29.212 288, 28.782 288 C 28.352 288, 28 288.873, 28 289.941 C 28 291.009, 27.550 292.160, 27 292.500 C 26.450 292.840, 26 294.190, 26 295.500 C 26 296.810, 25.612 298.122, 25.137 298.415 C 24.663 298.709, 23.708 301.098, 23.016 303.724 C 22.325 306.351, 20.911 310.975, 19.876 314 C 18.840 317.025, 17.869 320.400, 17.717 321.500 C 17.566 322.600, 17.168 323.950, 16.833 324.500 C 16.259 325.441, 12.374 341.147, 11.639 345.500 C 11.453 346.600, 11.050 348.175, 10.744 349 C 10.107 350.717, 8.021 361.270, 7.580 365 C 7.418 366.375, 7.004 369.075, 6.661 371 C 5.549 377.227, 3.417 392.855, 3.114 397 C 3.054 397.825, 2.609 403.450, 2.126 409.500 C 1.199 421.103, 1.502 483.385, 2.493 484.988 C 2.812 485.504, 3.325 489.430, 3.633 493.713 C 3.942 497.996, 4.403 501.840, 4.659 502.255 C 4.915 502.670, 5.296 505.145, 5.507 507.755 C 5.924 512.918, 7.907 524.594, 8.776 527 C 9.074 527.825, 9.235 528.872, 9.133 529.327 C 9.032 529.782, 9.441 531.807, 10.042 533.827 C 10.644 535.847, 11.371 539.075, 11.658 541 C 12.234 544.873, 15.703 558.644, 16.695 561 C 17.043 561.825, 17.379 562.725, 17.443 563 C 17.507 563.275, 18.170 566.313, 18.916 569.750 C 19.663 573.188, 20.737 576, 21.303 576 C 21.870 576, 22.072 576.261, 21.753 576.580 C 21.263 577.070, 24.563 588.117, 26.658 593 C 27.012 593.825, 27.406 594.950, 27.534 595.500 C 28.049 597.727, 34.345 613.535, 34.901 614 C 35.231 614.275, 35.632 615.175, 35.794 616 C 35.956 616.825, 37.126 619.750, 38.394 622.500 C 39.662 625.250, 41.954 630.313, 43.487 633.750 C 45.019 637.188, 46.688 640, 47.196 640 C 47.703 640, 47.862 640.414, 47.550 640.919 C 47.237 641.425, 47.693 642.550, 48.562 643.419 C 49.432 644.289, 49.858 645, 49.509 645 C 47.956 645, 73.927 689.584, 76.887 692 C 77.224 692.275, 77.950 693.227, 78.500 694.116 C 80.951 698.078, 89.969 710.688, 91.647 712.501 C 92.666 713.601, 94.768 716.199, 96.318 718.274 C 97.868 720.348, 100.164 723.074, 101.421 724.330 C 102.677 725.586, 103.884 727.119, 104.102 727.736 C 104.468 728.767, 108.180 733.032, 121.377 747.584 C 124.071 750.555, 126.756 752.674, 127.377 752.320 C 127.995 751.968, 128.149 752.065, 127.720 752.536 C 126.808 753.538, 140.841 768, 142.725 768 C 143.426 768, 144 768.675, 144 769.500 C 144 770.325, 144.446 771, 144.991 771 C 145.537 771, 147.224 772.280, 148.741 773.844 C 151.178 776.356, 160.798 784.809, 163.500 786.813 C 166.933 789.359, 173.742 794.783, 175.465 796.345 C 178.724 799.299, 185.765 804, 186.930 804 C 187.519 804, 188 804.449, 188 804.998 C 188 806.168, 204.216 817.025, 218.500 825.419 C 224 828.651, 229.963 832.165, 231.750 833.229 C 233.537 834.293, 235.007 834.789, 235.015 834.332 C 235.024 833.874, 235.361 834.003, 235.765 834.619 C 236.826 836.234, 246.641 841.026, 247.378 840.288 C 247.720 839.946, 248 840.137, 248 840.712 C 248 841.788, 253.911 844.662, 255.250 844.238 C 255.662 844.107, 256 844.450, 256 845 C 256 845.550, 256.900 846, 258 846 C 259.100 846, 260 846.450, 260 847 C 260 847.550, 260.439 848, 260.975 848 C 261.511 848, 264.897 849.350, 268.500 851 C 272.103 852.650, 275.404 854, 275.837 854 C 276.270 854, 278.450 854.882, 280.681 855.960 C 286.797 858.915, 310.730 866.937, 311.407 866.259 C 311.733 865.933, 312 866.142, 312 866.722 C 312 867.302, 313.588 868.075, 315.528 868.439 C 317.468 868.803, 321.856 869.998, 325.278 871.094 C 332.545 873.421, 352.262 877.950, 356.544 878.275 C 358.170 878.399, 359.725 878.791, 360 879.146 C 360.275 879.501, 362.750 880.055, 365.500 880.376 C 368.250 880.697, 374.325 881.629, 379 882.447 C 383.675 883.265, 390.541 884.149, 394.257 884.412 C 397.974 884.676, 401.370 885.111, 401.805 885.379 C 402.544 885.836, 434.056 887.290, 444 887.326 C 455.135 887.366, 485.193 885.999, 486.148 885.408 C 486.731 885.048, 490.423 884.568, 494.354 884.341 C 506.852 883.619, 551.810 875.400, 555.500 873.163 C 556.050 872.829, 557.175 872.465, 558 872.353 C 562.739 871.713, 570 869.551, 570 868.781 C 570 868.287, 570.407 868.133, 570.904 868.440 C 572.014 869.127, 589.271 863.604, 588.482 862.815 C 588.171 862.504, 588.975 862.250, 590.270 862.250 C 592.547 862.250, 613.275 854.744, 620.463 851.316 C 622.408 850.389, 624 849.215, 624 848.708 C 624 848.201, 624.624 848.026, 625.388 848.318 C 626.151 848.611, 630.538 846.932, 635.138 844.588 C 660.184 831.818, 670.102 826.470, 672.219 824.591 C 673.514 823.441, 675.105 822.392, 675.754 822.261 C 677.672 821.872, 687.373 815.867, 689 814.061 C 689.825 813.145, 690.863 812.344, 691.307 812.281 C 691.751 812.217, 694.601 810.452, 697.640 808.359 L 703.166 804.553 700.833 802.737 C 699.550 801.738, 692.581 795.268, 685.346 788.360 C 678.112 781.452, 671.893 775.732, 671.527 775.650 C 671.161 775.567, 664.931 769.771, 657.681 762.768 C 650.431 755.766, 644.178 750.029, 643.784 750.018 C 643.390 750.008, 640.001 746.963, 636.251 743.250 C 632.502 739.538, 625.808 733.125, 621.376 729 C 616.943 724.875, 606.957 715.476, 599.184 708.112 C 591.412 700.749, 584.028 694.014, 582.776 693.145 C 581.524 692.276, 578 689.075, 574.945 686.032 C 571.890 682.990, 566.039 677.350, 561.944 673.500 C 557.849 669.650, 547.689 660.081, 539.366 652.236 C 531.043 644.391, 523.041 637.033, 521.582 635.886 C 520.124 634.739, 516.567 631.483, 513.678 628.650 C 510.789 625.818, 504.561 619.900, 499.837 615.500 C 495.114 611.100, 485.300 601.875, 478.029 595 C 470.758 588.125, 464.483 582.377, 464.085 582.227 C 463.686 582.076, 457.554 576.374, 450.458 569.555 C 443.361 562.736, 437.194 557.380, 436.753 557.653 C 436.311 557.926, 436.074 557.778, 436.225 557.324 C 436.376 556.871, 436.216 556.332, 435.869 556.127 C 435.522 555.922, 428.322 549.068, 419.869 540.898 C 411.416 532.727, 404.184 526.032, 403.798 526.021 C 403.413 526.009, 400.004 522.962, 396.225 519.250 C 392.445 515.538, 385.747 509.125, 381.341 505 C 376.934 500.875, 367.517 492.035, 360.414 485.356 C 353.311 478.676, 345.925 471.926, 344 470.356 C 342.075 468.785, 337.999 465.025, 334.942 462 C 331.886 458.975, 325.799 453.125, 321.416 449 C 294.247 423.427, 284.083 413.939, 280.868 411.151 C 278.870 409.418, 274.573 405.412, 271.319 402.250 C 268.065 399.087, 262.499 393.844, 258.951 390.597 C 255.403 387.351, 246.268 378.801, 238.651 371.597 C 231.035 364.394, 224.492 358.382, 224.112 358.237 C 223.732 358.092, 217.143 351.938, 209.470 344.561 C 201.797 337.183, 195.419 331.248, 195.296 331.371 C 195.173 331.494, 188.194 324.945, 179.786 316.818 C 171.379 308.691, 164.229 302.032, 163.897 302.021 C 163.565 302.009, 157.490 296.348, 150.397 289.439 C 143.304 282.530, 135.958 275.668, 134.073 274.189 C 132.188 272.710, 123.709 264.750, 115.230 256.500 C 106.750 248.250, 99.250 241.179, 98.563 240.788 C 97.875 240.396, 91.280 234.212, 83.906 227.045 C 76.533 219.878, 69.938 214.011, 69.250 214.007 C 68.563 214.003, 68 213.550, 68 213 C 68 210.181, 65.085 212.664, 62.465 217.715 M 712.286 451.500 C 712.294 454.250, 712.488 455.256, 712.718 453.736 C 712.947 452.216, 712.941 449.966, 712.704 448.736 C 712.467 447.506, 712.279 448.750, 712.286 451.500" stroke="none" fill="#ea5670" fill-rule="evenodd"/><path d="M 422 1.056 C 373.967 3.342, 326.844 13.628, 280 32.052 C 262.594 38.898, 227.981 56.398, 212 66.433 C 179.145 87.063, 146.435 113.707, 123.316 138.673 L 113.593 149.173 122.548 157.836 C 127.474 162.601, 136.850 171.634, 143.385 177.908 L 155.267 189.316 165.007 178.908 C 180.339 162.523, 202.163 143.564, 222 129.394 C 304.129 70.733, 406.238 47.180, 507.670 63.502 C 627.979 82.862, 733.501 160.553, 788.819 270.500 C 809.691 311.984, 821.933 353.455, 827.637 402 C 829.699 419.543, 829.999 462.764, 828.179 480 C 818.734 569.480, 781.681 649.166, 720.277 712.060 L 711.920 720.620 718.210 726.540 C 721.670 729.796, 730.998 738.657, 738.939 746.230 C 746.880 753.804, 753.702 760, 754.098 760 C 755.248 760, 774.381 739.511, 784.446 727.500 C 838.627 662.846, 873.301 583.873, 883.955 500.854 C 894.980 414.954, 881.210 328.628, 844.226 251.786 C 782.222 122.962, 661.948 31.622, 522 7.077 C 503.129 3.768, 487.646 2.079, 466.500 1.025 C 444.993 -0.047, 445.192 -0.048, 422 1.056 M 418 112.081 C 347.567 118.839, 289.877 142.015, 235.500 185.398 C 225.010 193.767, 193.598 224.457, 194.169 225.780 C 194.351 226.203, 204.746 236.371, 217.268 248.376 L 240.036 270.203 251.183 258.531 C 317.516 189.068, 414.561 160.479, 507.645 182.976 C 584.862 201.639, 649.294 252.998, 684.565 324 C 708.419 372.019, 717.293 424.687, 710.445 477.594 C 703.166 533.831, 677.618 587.256, 638.703 627.620 L 627.042 639.714 635.271 647.318 C 639.797 651.500, 650.250 661.428, 658.500 669.381 L 673.500 683.842 679.360 678.171 C 716.223 642.499, 747.058 591.431, 762.488 540.500 C 778.208 488.607, 781.145 432.863, 770.944 380 C 751.520 279.351, 685.604 192.332, 594.094 146.531 C 546.954 122.937, 495.110 110.799, 443 111.153 C 433.925 111.215, 422.675 111.633, 418 112.081 M 427 234.596 C 391.992 238.801, 357.972 252.600, 328.197 274.673 C 319.534 281.096, 296.196 304.165, 291.269 311.176 L 288.038 315.774 307.777 334.637 C 318.633 345.012, 328.481 354.318, 329.662 355.318 C 331.791 357.122, 331.851 357.078, 337.812 349.318 C 347.569 336.615, 361.584 323.814, 375.591 314.812 C 388.513 306.506, 409.734 298.336, 426.281 295.295 C 437.428 293.246, 462.993 292.998, 474 294.831 C 495.787 298.460, 519.397 308.431, 536.587 321.263 C 599.802 368.453, 613.636 456.323, 567.920 520.277 C 561.523 529.227, 548.499 542.889, 540.769 548.758 L 535.841 552.500 545.368 561.500 C 550.608 566.450, 560.351 575.675, 567.018 582 C 573.686 588.325, 579.507 593.632, 579.953 593.794 C 581.248 594.263, 602.461 573.465, 609.208 565.112 C 668.688 491.472, 670.184 388.630, 612.880 312.780 C 604.919 302.242, 585.863 283.158, 575.500 275.343 C 532.093 242.610, 479.782 228.256, 427 234.596 M 436 375.576 C 414.211 381.299, 396.073 399.596, 390.515 421.460 C 388.583 429.060, 388.594 443.652, 390.537 451.897 C 394.673 469.439, 408.212 485.661, 425.190 493.412 C 434.793 497.797, 441.171 499.200, 451.500 499.200 C 461.829 499.200, 468.207 497.797, 477.810 493.412 C 519.708 474.283, 527.017 418.359, 491.563 388.192 C 485.526 383.055, 474.774 377.608, 466.540 375.515 C 459.077 373.618, 443.336 373.650, 436 375.576 M 1.300 459 C 1.300 462.025, 1.487 463.262, 1.716 461.750 C 1.945 460.238, 1.945 457.762, 1.716 456.250 C 1.487 454.738, 1.300 455.975, 1.300 459" stroke="none" fill="#824e98" fill-rule="evenodd"/></svg>