<svg xmlns="http://www.w3.org/2000/svg" width="1417" height="1417" viewBox="0 0 1417 1417" version="1.1"><path d="M 577.500 388.006 C 574.750 388.421, 569.830 389.710, 566.566 390.870 C 553.461 395.526, 549.500 400.592, 549.500 412.700 C 549.500 416.660, 549.978 420.378, 550.561 420.961 C 551.309 421.709, 553.374 421.411, 557.561 419.950 C 560.828 418.810, 568.433 416.774, 574.462 415.425 C 588.901 412.196, 593.342 409.979, 596.637 404.356 C 598.648 400.926, 599.113 399.084, 598.666 396.328 C 597.864 391.390, 595.639 389.303, 589.852 388.062 C 584.468 386.907, 584.757 386.908, 577.500 388.006 M 564.044 435.750 C 560.165 440.441, 556.669 451.320, 554.636 465.026 C 553.778 470.815, 551.073 485.215, 548.625 497.026 C 542.234 527.856, 540.684 538.793, 540.694 553 C 540.703 567.996, 543.350 580, 546.646 580 C 549.105 580, 550 575.212, 550 562.066 C 550 548.366, 551.070 540.691, 556.490 515.500 C 558.384 506.700, 561.081 492.243, 562.484 483.373 C 565.231 466.012, 568.484 454.890, 572.663 448.574 C 574.108 446.391, 575.501 442.733, 575.759 440.447 C 576.143 437.036, 575.814 435.905, 573.925 434.145 C 570.515 430.968, 567.609 431.440, 564.044 435.750 M 449.500 518.649 C 447.850 518.842, 442.225 519.481, 437 520.070 C 426.104 521.299, 413.044 523.350, 384 528.395 C 372.725 530.353, 348.425 533.976, 330 536.445 C 287.210 542.180, 270.794 545.005, 248.500 550.472 C 238.600 552.899, 228.700 555.176, 226.500 555.532 C 215.526 557.307, 206.806 560.318, 203.437 563.495 C 200.147 566.597, 200 567.041, 200 573.845 C 200 580.355, 200.214 581.094, 202.541 582.619 C 206.729 585.363, 216.281 583.929, 232.970 578.051 C 240.929 575.248, 248.014 573.175, 248.716 573.444 C 249.716 573.828, 249.856 577.768, 249.367 591.717 C 248.707 610.541, 249.367 615.783, 252.945 620.155 L 254.864 622.500 256.468 618.695 C 259.078 612.506, 260.041 605.473, 260.691 587.843 L 261.305 571.186 270.403 568.658 C 281.845 565.479, 292.216 563.479, 307.500 561.506 C 324.828 559.269, 330.265 558.414, 362.500 552.851 C 402.372 545.970, 422.352 543.043, 423.302 543.943 C 423.743 544.362, 424.967 552.005, 426.022 560.928 C 429.309 588.734, 431.150 596, 434.910 596 C 438.528 596, 439.242 589.962, 438.326 567.111 C 437.872 555.775, 437.500 545.603, 437.500 544.507 C 437.500 542.709, 438.898 542.303, 451.707 540.375 C 477.809 536.446, 486.155 533.413, 486.826 527.614 C 487.241 524.029, 483.932 520.353, 479.074 519.004 C 475.759 518.083, 456.355 517.850, 449.500 518.649 M 678 656.023 L 678 759.045 696.250 758.773 L 714.500 758.500 715 718 L 715.500 677.500 734.239 677.228 L 752.978 676.956 753.239 717.728 L 753.500 758.500 771.750 758.773 L 790 759.045 790 656 L 790 552.955 771.750 553.227 L 753.500 553.500 753.238 592.750 L 752.977 632 733.988 632 L 715 632 715 592.500 L 715 553 696.500 553 L 678 553 678 656.023 M 858.385 555.750 C 858.026 557.263, 850.355 586.625, 841.339 621 C 832.322 655.375, 822.655 692.275, 819.855 703 C 817.056 713.725, 812.627 730.524, 810.013 740.332 C 806.735 752.633, 805.619 758.300, 806.414 758.605 C 807.048 758.849, 815.644 758.925, 825.516 758.774 L 843.464 758.500 847.066 743.500 L 850.668 728.500 873.560 728.500 L 896.451 728.500 898.735 738.500 C 899.992 744, 901.581 750.750, 902.268 753.500 L 903.516 758.500 922.258 758.772 C 943.808 759.085, 942.258 760.033, 939.079 748.480 C 936.637 739.604, 935.703 736.067, 914.527 655.500 C 904.841 618.650, 894.817 580.513, 892.250 570.750 L 887.583 553 873.311 553 L 859.038 553 858.385 555.750 M 957 656 L 957 759 1044.500 759 L 1132 759 1132 656 L 1132 553 1114.006 553 L 1096.012 553 1095.756 633.250 L 1095.500 713.500 1079.250 713.775 L 1063 714.050 1063 633.525 L 1063 553 1044.500 553 L 1026 553 1026 633.500 L 1026 714 1010 714 L 994 714 994 635.082 C 994 591.677, 993.727 555.452, 993.393 554.582 C 992.871 553.221, 990.287 553, 974.893 553 L 957 553 957 656 M 1162.464 554.241 C 1162.201 554.933, 1162.101 601.175, 1162.242 657 L 1162.500 758.500 1213 758.500 L 1263.500 758.500 1263.769 736.264 L 1264.038 714.028 1231.769 713.764 L 1199.500 713.500 1199.227 695.750 L 1198.954 678 1226.496 678 L 1254.038 678 1253.769 655.250 L 1253.500 632.500 1226.226 632.234 L 1198.952 631.968 1199.226 615.234 L 1199.500 598.500 1231.500 598 L 1263.500 597.500 1263.500 575.500 L 1263.500 553.500 1213.222 553.241 C 1173.532 553.036, 1162.843 553.247, 1162.464 554.241 M 605.500 583.667 C 603.300 583.849, 589.800 584.681, 575.500 585.516 C 542.320 587.453, 522.467 588.792, 508 590.070 C 486.185 591.997, 455.480 595.097, 448.500 596.077 C 419.261 600.183, 397.105 604.007, 336 615.494 C 284.872 625.105, 248.394 631.251, 217.500 635.458 C 193.160 638.773, 179.502 640.906, 174.613 642.157 L 170.727 643.151 171.376 650.325 C 172.150 658.879, 175.825 671.996, 177.644 672.694 C 180.341 673.729, 198.274 671.005, 215.061 667.010 C 224.653 664.728, 246.225 660.187, 263 656.918 C 279.775 653.649, 297.396 649.859, 302.159 648.496 C 306.921 647.133, 318.846 644.883, 328.659 643.497 C 356.646 639.545, 387.778 633.306, 393.500 630.502 C 400.279 627.181, 412.860 625.371, 442 623.524 C 470.157 621.739, 476.676 620.967, 498 616.891 C 523.914 611.938, 535.152 610.928, 571.250 610.309 C 589.813 609.991, 605 609.937, 605 610.190 C 605 611.728, 599.216 627.128, 593.194 641.624 C 589.338 650.906, 582.254 668.400, 577.451 680.500 C 572.648 692.600, 559.510 723.200, 548.254 748.500 C 518.041 816.413, 503.153 852.923, 492.021 886.400 L 486.734 902.299 468.117 901.452 C 430.647 899.745, 322.913 900.971, 293.500 903.438 C 261.956 906.085, 236.277 908.951, 221.500 911.476 C 213.800 912.791, 203.174 914.179, 197.887 914.561 L 188.274 915.254 186.602 907.877 C 178.426 871.798, 170.067 807.152, 167.416 759.500 C 166.590 744.650, 165.259 727.809, 164.457 722.076 C 163.656 716.343, 162.989 708.693, 162.976 705.076 C 162.932 693.262, 160.198 686, 155.794 686 C 150.432 686, 149.469 703.905, 153.445 729.661 C 154.790 738.373, 156.577 752.475, 157.417 761 C 163.058 818.241, 164.532 831.432, 168.051 856.166 C 174.512 901.586, 179.682 924.474, 184.503 929.003 C 186.470 930.851, 187.987 931.133, 196.133 931.165 C 202.421 931.189, 208.130 930.527, 213.500 929.149 C 222.175 926.923, 241.186 923.492, 250 922.561 C 292.454 918.080, 325.854 916.255, 410.500 913.793 C 461.634 912.306, 469.674 912.251, 477.281 913.331 L 483.062 914.152 482.374 917.826 C 481.771 921.049, 481.874 921.345, 483.216 920.233 C 484.058 919.536, 485.479 919.246, 486.373 919.590 C 487.440 919.999, 488 919.686, 488 918.680 C 488 917.837, 487.212 916.970, 486.250 916.754 C 485.008 916.475, 485.660 915.826, 488.500 914.517 C 491.652 913.064, 494.726 912.697, 503 912.790 C 508.775 912.855, 515.013 912.673, 516.862 912.387 L 520.224 911.867 517.920 909.414 C 515.280 906.605, 504.622 903, 498.954 903 C 496.844 903, 494.897 902.643, 494.628 902.207 C 493.640 900.609, 499.399 885.997, 509.482 864.514 C 515.165 852.406, 522.141 836.650, 524.984 829.500 C 534.390 805.851, 543.183 785.824, 549.537 773.582 C 559.045 755.265, 588.072 691.278, 595.485 672.297 C 605.893 645.648, 611.979 631.151, 616.636 621.917 C 622.635 610.020, 625.946 600.826, 626.631 594.162 C 627.128 589.323, 626.896 588.100, 625.034 585.750 C 623.016 583.203, 622.362 583.012, 616.177 583.168 C 612.505 583.261, 607.700 583.485, 605.500 583.667 M 873.102 636.649 C 869.270 650.987, 861.397 685.064, 861.820 685.486 C 862.102 685.769, 867.914 686, 874.734 686 C 886.076 686, 887.090 685.851, 886.615 684.250 C 886.329 683.288, 883.574 671.488, 880.494 658.030 C 877.413 644.571, 874.721 633.388, 874.512 633.179 C 874.303 632.969, 873.668 634.531, 873.102 636.649 M 466 646.018 C 459.675 647.602, 451.910 649.204, 448.745 649.579 C 443.537 650.195, 442.596 649.999, 438.838 647.512 L 434.686 644.764 432.865 647.132 C 431.864 648.434, 431.034 649.816, 431.022 650.203 C 430.972 651.799, 422.532 653.111, 406.500 654.017 C 397.150 654.545, 385.900 655.456, 381.500 656.041 C 377.100 656.626, 362.250 658.641, 348.500 660.518 C 319.142 664.525, 297.408 666.045, 283.500 665.064 C 272.002 664.253, 271.797 664.362, 269.501 672.500 C 266.064 684.677, 266.788 703.675, 271.565 726.712 C 272.904 733.171, 274 740.083, 274 742.073 C 274 744.384, 274.701 746.325, 275.942 747.448 C 277.771 749.103, 278.430 749.113, 287.192 747.624 C 292.312 746.753, 303.925 745.329, 313 744.459 C 333.880 742.456, 368.500 737.799, 390.500 734.034 C 405.827 731.410, 415.272 730.360, 440.500 728.475 C 450.358 727.738, 466.382 725.314, 470.750 723.898 C 473.987 722.849, 474 722.817, 474.001 716.172 C 474.002 712.503, 475.107 704.940, 476.458 699.366 C 477.808 693.792, 479.828 683.892, 480.946 677.366 C 483.238 663.988, 483.994 661.073, 486.549 655.776 C 488.622 651.478, 487.711 648.128, 483.796 645.657 C 479.679 643.059, 477.655 643.100, 466 646.018 M 517.500 645.617 C 501.705 650.458, 501.135 650.761, 500.394 654.712 C 499.829 657.725, 500.090 658.559, 502.063 660.047 C 503.836 661.385, 504.139 662.136, 503.317 663.156 C 501.376 665.561, 497.255 678.334, 496.174 685.293 C 494.893 693.543, 496.034 701.835, 499.031 706.044 C 502.529 710.955, 506.169 712.243, 515.388 711.830 C 526.284 711.342, 533.057 708.020, 542.749 698.413 C 557.645 683.647, 561.064 666.718, 551.326 655.939 C 547.724 651.952, 530.756 642.910, 527.201 643.083 C 526.265 643.128, 521.900 644.269, 517.500 645.617 M 519.060 661.540 C 512.492 667.684, 505.866 680.565, 505.211 688.464 C 504.563 696.281, 505.384 698.480, 509.714 700.535 C 513.015 702.101, 514.144 702.164, 519.421 701.074 C 527.324 699.442, 531.787 697.052, 537.717 691.276 C 547.472 681.774, 551.085 671.650, 547.028 665.182 C 544.450 661.073, 537.764 657.970, 529.960 657.263 L 524.193 656.740 519.060 661.540 M 453.784 659.855 C 448.440 660.760, 443.641 661.950, 443.119 662.500 C 442.597 663.050, 440.772 671.825, 439.065 682 C 435.439 703.606, 432.322 715.939, 430.291 716.719 C 429.496 717.024, 428.106 716.535, 427.203 715.632 C 425.894 714.322, 425.603 712.205, 425.765 705.161 C 425.943 697.386, 426.537 691.765, 429.556 669.234 L 430.262 663.968 421.381 664.586 C 409.679 665.401, 389.450 667.991, 357 672.831 C 342.425 675.004, 321.977 677.781, 311.560 679.002 C 301.143 680.222, 289.668 681.959, 286.060 682.860 L 279.500 684.500 279.206 700 C 278.925 714.855, 280.279 731.637, 281.893 733.279 C 282.314 733.708, 286.673 733.607, 291.579 733.056 C 296.486 732.505, 324.125 730.240, 353 728.023 C 381.875 725.806, 410.225 723.536, 416 722.978 C 436.292 721.020, 462.507 717.775, 463.164 717.141 C 463.529 716.788, 464.337 712.225, 464.959 707 C 465.582 701.775, 467.023 693, 468.162 687.500 C 471.719 670.321, 472.878 661.641, 471.866 659.750 C 470.708 657.587, 467.055 657.608, 453.784 659.855 M 198.149 679.533 C 193.976 681.345, 183.435 689.669, 178.758 694.846 C 173.626 700.527, 170.786 708.748, 170.241 719.500 C 169.680 730.584, 171.008 735.897, 175.616 740.997 C 180.806 746.742, 186.848 748.514, 201 748.441 C 225.651 748.314, 245.451 739.365, 253.165 724.863 C 255.095 721.234, 255.487 718.986, 255.493 711.500 C 255.499 703.681, 255.121 701.680, 252.615 696.253 C 249.083 688.606, 242.721 682.417, 237.340 681.394 C 234.976 680.945, 229.656 681.308, 223.500 682.339 C 210.290 684.552, 209.140 684.499, 208.052 681.636 C 206.598 677.812, 203.587 677.172, 198.149 679.533 M 218 693.639 C 212.501 694.699, 198.154 699.369, 192.433 701.960 C 185.690 705.015, 183.784 707.759, 181.785 717.289 C 180.263 724.544, 182.382 729.023, 188.843 732.206 C 193.027 734.267, 194.922 734.500, 207.500 734.500 C 219.537 734.500, 222.517 734.167, 228.753 732.124 C 244.897 726.834, 252.599 712.672, 245.077 702.109 C 240.911 696.258, 226.994 691.905, 218 693.639 M 470 762.628 C 468.075 762.853, 460.650 764.022, 453.500 765.227 C 444.550 766.735, 437.073 767.351, 429.500 767.205 C 411.870 766.865, 366.824 771.090, 324 777.100 C 300.254 780.433, 288.938 782.501, 250.500 790.532 C 236.200 793.519, 217.778 797.107, 209.561 798.504 C 201.345 799.901, 194.418 801.249, 194.167 801.500 C 193.229 802.438, 192.781 812.057, 193.464 816.607 C 194.387 822.764, 198.397 827, 203.301 827 C 207.506 827, 254.878 815.346, 256.650 813.876 C 257.344 813.299, 258.414 813.138, 259.027 813.516 C 259.640 813.895, 262.979 812.808, 266.448 811.100 C 271.589 808.570, 274.487 807.876, 282.127 807.346 C 287.282 806.989, 291.792 806.249, 292.149 805.703 C 292.505 805.157, 299.255 804.365, 307.149 803.943 C 317.538 803.388, 323.295 802.581, 328 801.017 C 333.276 799.264, 338.361 798.688, 355 797.957 C 366.275 797.461, 379.775 796.365, 385 795.520 C 406.217 792.090, 421.118 790.051, 432.500 789.021 C 449.671 787.466, 465.243 784.348, 472.353 781.042 C 475.734 779.470, 480.460 777.869, 482.856 777.486 C 488.422 776.595, 491.218 773.888, 490.809 769.790 C 490.209 763.790, 482.567 761.159, 470 762.628 M 440.500 795.917 C 415.817 800.336, 401.960 802.701, 384 805.558 C 374.925 807.002, 348.825 811.524, 326 815.607 C 303.175 819.691, 276.400 823.918, 266.500 825 C 246.600 827.176, 236.019 829.354, 232.839 831.929 C 228.959 835.071, 229.120 851.120, 233.072 855.072 C 236.865 858.865, 248.944 857.078, 276.080 848.709 C 282.449 846.745, 302.474 842.201, 320.580 838.610 C 365.347 829.733, 389.598 824.651, 401.500 821.654 C 414.239 818.446, 420.844 817.316, 434.500 816.007 C 463.583 813.221, 476 808.437, 476 800.020 C 476 792.545, 465.873 791.375, 440.500 795.917 M 1089.251 823.483 C 1081.423 825.683, 1076.268 828.636, 1070.920 833.985 C 1063.752 841.153, 1062.487 846.216, 1062.551 867.500 C 1062.596 882.663, 1062.842 885.110, 1064.832 890.143 C 1069.179 901.135, 1080.950 909.155, 1095.431 910.991 C 1110.256 912.871, 1123.390 909.291, 1132.509 900.885 C 1140.708 893.327, 1143 885.805, 1143 866.453 C 1143 846.970, 1140.226 838.658, 1131.295 831.377 C 1123.779 825.251, 1116.525 822.813, 1104.500 822.374 C 1097.708 822.125, 1092.816 822.481, 1089.251 823.483 M 680.239 866.678 L 680.500 910.500 693.250 910.780 L 706 911.060 706 896.230 C 706 886.029, 706.375 881.025, 707.200 880.200 C 707.990 879.410, 712.221 879, 719.595 879 C 734.415 879, 741.757 876.822, 749.055 870.261 C 751.941 867.666, 755.125 863.733, 756.129 861.521 C 758.568 856.153, 758.570 845.849, 756.134 840.500 C 753.789 835.350, 747.236 829.472, 740.120 826.135 C 734.544 823.521, 734.286 823.497, 707.239 823.178 L 679.979 822.857 680.239 866.678 M 783.651 826.250 C 782.895 828.038, 778.212 838.725, 773.244 850 C 758.705 883.003, 747 910.010, 747 910.553 C 747 910.830, 753.125 910.931, 760.612 910.778 L 774.224 910.500 776.460 904.500 L 778.696 898.500 795.181 898.227 L 811.666 897.953 814.123 904.227 L 816.580 910.500 829.790 910.779 C 837.572 910.943, 843 910.672, 843 910.117 C 843 909.146, 809.049 830.930, 806.424 825.853 C 804.951 823.005, 804.930 823, 794.988 823 L 785.027 823 783.651 826.250 M 875.547 824.250 C 875.332 824.938, 874.916 832.925, 874.622 842 C 874.057 859.414, 872.192 870.817, 867.834 883.500 C 865.520 890.235, 865.298 890.510, 861.964 890.770 C 860.059 890.918, 857.477 891.267, 856.228 891.545 L 853.955 892.049 854.228 910.275 L 854.500 928.500 866.500 928.500 L 878.500 928.500 878.789 919.750 L 879.078 911 904.500 911 L 929.922 911 930.211 919.750 L 930.500 928.500 942.772 928.781 L 955.044 929.062 954.772 910.281 L 954.500 891.500 948.750 891.200 L 943 890.900 943 856.950 L 943 823 909.469 823 C 883.518 823, 875.849 823.283, 875.547 824.250 M 966.239 866.750 L 966.500 910.500 977.525 910.781 L 988.551 911.061 1004.557 888.354 C 1013.360 875.864, 1020.999 865.500, 1021.531 865.322 C 1022.137 865.120, 1022.500 873.517, 1022.500 887.750 L 1022.500 910.500 1035.500 910.500 L 1048.500 910.500 1048.500 867 L 1048.500 823.500 1037 823.239 L 1025.500 822.977 1009.500 845.955 C 1000.700 858.592, 993.163 868.947, 992.750 868.966 C 992.337 868.985, 992 858.650, 992 846 L 992 823 978.989 823 L 965.979 823 966.239 866.750 M 449.500 830.143 C 445.650 830.683, 432.825 832.692, 421 834.610 C 409.175 836.527, 389.600 839.215, 377.500 840.583 C 349.286 843.774, 311.554 849.237, 288.001 853.541 C 277.826 855.400, 263.283 857.865, 255.684 859.019 C 231.132 862.745, 219.242 866.698, 216.473 872.053 C 214.162 876.522, 214.570 883.389, 217.339 886.607 L 219.678 889.326 227.442 888.074 C 231.712 887.385, 237.747 885.936, 240.853 884.853 C 251.251 881.229, 268.352 877.189, 290.516 873.120 C 322.847 867.185, 376.689 858.435, 399 855.490 C 409.725 854.074, 424.125 851.611, 431 850.016 C 437.875 848.422, 447.312 846.406, 451.971 845.537 C 463.865 843.320, 467.738 842.210, 473.796 839.281 C 479.716 836.419, 480.088 834.897, 475.677 831.606 C 473.406 829.911, 471.259 829.467, 464.677 829.331 C 460.180 829.239, 453.350 829.604, 449.500 830.143 M 1097.094 842.256 C 1092.255 844.023, 1090.058 847.578, 1088.874 855.552 C 1087.657 863.747, 1088.557 881.003, 1090.434 885.497 C 1094.098 894.264, 1110.257 894.048, 1114.673 885.173 C 1117.303 879.886, 1117.327 853.120, 1114.706 848.259 C 1111.450 842.222, 1104.072 839.707, 1097.094 842.256 M 706.490 844.186 C 706.162 845.493, 706.030 849.473, 706.197 853.031 L 706.500 859.500 715.550 859.785 C 723.634 860.039, 724.969 859.821, 728.050 857.745 C 731.099 855.691, 731.500 854.914, 731.500 851.068 C 731.500 844.401, 728.455 842.595, 716.472 842.155 C 707.297 841.818, 707.072 841.863, 706.490 844.186 M 900.502 851.750 C 899.663 863.704, 897.646 874.091, 894.434 882.994 C 893.095 886.705, 892 890.025, 892 890.371 C 892 890.717, 897.625 891, 904.500 891 L 917 891 917 866.500 L 917 842 909.093 842 L 901.187 842 900.502 851.750 M 795 858.292 C 795 858.452, 793.200 862.991, 791 868.377 C 788.800 873.763, 787 878.582, 787 879.085 C 787 880.174, 803.990 880.338, 804.022 879.250 C 804.072 877.512, 796.515 858, 795.792 858 C 795.356 858, 795 858.131, 795 858.292 M 576.072 1033.491 C 567.866 1035.350, 556.914 1040.576, 550.447 1045.718 C 543.701 1051.081, 536.684 1061.700, 533.409 1071.500 C 528.229 1087.002, 529.139 1110.213, 535.492 1124.578 C 538.260 1130.838, 546.366 1139.852, 552.412 1143.396 C 562.259 1149.166, 568.186 1150.405, 586 1150.415 C 601.456 1150.424, 603.038 1150.246, 611 1147.596 C 615.675 1146.040, 621.707 1143.651, 624.405 1142.288 L 629.311 1139.809 628.701 1148.154 C 625.301 1194.672, 593.324 1216.576, 549.326 1202.525 C 540.925 1199.842, 537.474 1199.425, 536.515 1200.976 C 535.139 1203.202, 534.823 1211.933, 535.990 1215.469 C 537.009 1218.556, 538.128 1219.627, 542.363 1221.565 C 554.415 1227.080, 582.395 1228.560, 597.500 1224.482 C 633.035 1214.888, 652.457 1182.792, 654.671 1130 C 655.795 1103.223, 652.051 1078.016, 644.647 1062.509 C 638.010 1048.608, 628.432 1039.796, 614.723 1034.978 C 606.561 1032.110, 585.710 1031.308, 576.072 1033.491 M 731.757 1032.968 C 718.213 1035.435, 705.194 1042.266, 698.525 1050.404 C 687.889 1063.383, 685.658 1083.125, 693.044 1098.907 C 696.783 1106.899, 707.603 1117.802, 717.410 1123.462 C 722.318 1126.295, 723.879 1127.655, 722.887 1128.233 C 700.779 1141.120, 692.280 1148.608, 686.513 1160.277 C 683.271 1166.836, 682.687 1169.087, 682.255 1176.689 C 680.513 1207.320, 700.575 1225.004, 739 1226.707 C 758.516 1227.572, 776.312 1224.263, 786.829 1217.815 C 792.066 1214.604, 799.854 1207.159, 802.739 1202.606 C 811.023 1189.535, 812.084 1170.097, 805.255 1156.500 C 801.412 1148.846, 789.131 1137.458, 777.757 1131 C 772.429 1127.975, 768.054 1125.226, 768.035 1124.892 C 768.016 1124.558, 770.712 1122.610, 774.028 1120.564 C 782.232 1115.500, 791.578 1106.680, 796.053 1099.779 C 801.317 1091.660, 803.415 1083.139, 802.756 1072.563 C 801.577 1053.665, 790.579 1040.892, 770 1034.522 C 763.661 1032.560, 739.410 1031.575, 731.757 1032.968 M 958.757 1032.968 C 945.213 1035.435, 932.194 1042.266, 925.525 1050.404 C 914.889 1063.383, 912.658 1083.125, 920.044 1098.907 C 923.783 1106.899, 934.603 1117.802, 944.410 1123.462 C 949.318 1126.295, 950.879 1127.655, 949.887 1128.233 C 927.779 1141.120, 919.280 1148.608, 913.513 1160.277 C 910.271 1166.836, 909.687 1169.087, 909.255 1176.689 C 907.513 1207.320, 927.575 1225.004, 966 1226.707 C 985.516 1227.572, 1003.312 1224.263, 1013.829 1217.815 C 1019.066 1214.604, 1026.854 1207.159, 1029.739 1202.606 C 1038.023 1189.535, 1039.084 1170.097, 1032.255 1156.500 C 1028.412 1148.846, 1016.131 1137.458, 1004.757 1131 C 999.429 1127.975, 995.054 1125.226, 995.035 1124.892 C 995.016 1124.558, 997.712 1122.610, 1001.028 1120.564 C 1009.232 1115.500, 1018.578 1106.680, 1023.053 1099.779 C 1028.317 1091.660, 1030.415 1083.139, 1029.756 1072.563 C 1028.577 1053.665, 1017.579 1040.892, 997 1034.522 C 990.661 1032.560, 966.410 1031.575, 958.757 1032.968 M 582.147 1053.012 C 573.290 1054.882, 565.078 1061.569, 560.672 1070.500 C 556.888 1078.169, 555.670 1085.477, 556.198 1097.336 C 556.613 1106.672, 557.036 1108.631, 559.893 1114.435 C 563.366 1121.489, 566.741 1124.650, 574.555 1128.164 C 578.563 1129.967, 581.395 1130.399, 589.500 1130.444 C 602.134 1130.515, 609.785 1128.815, 620.226 1123.619 L 628.500 1119.500 628.283 1107.500 C 627.778 1079.641, 619.841 1061.050, 605.890 1055.048 C 600.027 1052.526, 588.950 1051.576, 582.147 1053.012 M 734.500 1053.339 C 721.075 1056.837, 714 1065.521, 714 1078.500 C 714 1089.407, 719.294 1097.767, 731.344 1105.889 C 743.254 1113.918, 746.685 1115.373, 750.235 1113.903 C 758.343 1110.544, 770.653 1099.325, 774.815 1091.500 C 778.379 1084.800, 778.576 1072.761, 775.227 1066.347 C 772.521 1061.164, 766.998 1056.537, 761.056 1054.474 C 754.836 1052.313, 740.745 1051.711, 734.500 1053.339 M 961.500 1053.339 C 948.075 1056.837, 941 1065.521, 941 1078.500 C 941 1089.407, 946.294 1097.767, 958.344 1105.889 C 970.254 1113.918, 973.685 1115.373, 977.235 1113.903 C 985.343 1110.544, 997.653 1099.325, 1001.815 1091.500 C 1005.379 1084.800, 1005.576 1072.761, 1002.227 1066.347 C 999.521 1061.164, 993.998 1056.537, 988.056 1054.474 C 981.836 1052.313, 967.745 1051.711, 961.500 1053.339 M 734.108 1142.815 C 722.336 1149.555, 714.822 1156.584, 710.924 1164.503 C 707.954 1170.535, 707.776 1171.496, 708.198 1179.228 C 708.694 1188.334, 710.125 1191.971, 715.215 1197.061 C 722.741 1204.587, 738.784 1208.329, 754.507 1206.226 C 772.880 1203.768, 782.576 1195.246, 783.744 1180.529 C 784.971 1165.081, 776.872 1154.536, 754.996 1143.096 C 749.636 1140.293, 744.632 1138.002, 743.876 1138.005 C 743.119 1138.008, 738.723 1140.172, 734.108 1142.815 M 961.108 1142.815 C 949.336 1149.555, 941.822 1156.584, 937.924 1164.503 C 934.954 1170.535, 934.776 1171.496, 935.198 1179.228 C 935.694 1188.334, 937.125 1191.971, 942.215 1197.061 C 949.741 1204.587, 965.784 1208.329, 981.507 1206.226 C 999.880 1203.768, 1009.576 1195.246, 1010.744 1180.529 C 1011.971 1165.081, 1003.872 1154.536, 981.996 1143.096 C 976.636 1140.293, 971.632 1138.002, 970.876 1138.005 C 970.119 1138.008, 965.723 1140.172, 961.108 1142.815 M 853.020 1192.284 C 848.923 1194.357, 848.031 1197.535, 848.015 1210.116 L 848 1221.733 838 1242.205 C 832.500 1253.465, 828 1263.192, 828 1263.820 C 828 1266.577, 842.271 1266.660, 845.618 1263.923 C 849.247 1260.954, 872.640 1224.273, 874.319 1218.919 C 876.090 1213.272, 876.817 1200.149, 875.576 1196.239 C 875.181 1194.996, 873.563 1193.308, 871.979 1192.489 C 868.435 1190.656, 856.492 1190.528, 853.020 1192.284" stroke="none" fill="#fcf8f7" fill-rule="evenodd"/><path d="M 0 708.501 L 0 1417.001 708.750 1416.751 L 1417.500 1416.500 1417.751 708.250 L 1418.001 -0 709.001 -0 L 0 0 0 708.501 M 0.497 709 C 0.497 1098.675, 0.611 1258.087, 0.750 1063.250 C 0.889 868.412, 0.889 549.587, 0.750 354.750 C 0.611 159.912, 0.497 319.325, 0.497 709 M 577.500 388.006 C 574.750 388.421, 569.830 389.710, 566.566 390.870 C 553.461 395.526, 549.500 400.592, 549.500 412.700 C 549.500 416.660, 549.978 420.378, 550.561 420.961 C 551.309 421.709, 553.374 421.411, 557.561 419.950 C 560.828 418.810, 568.433 416.774, 574.462 415.425 C 588.901 412.196, 593.342 409.979, 596.637 404.356 C 598.648 400.926, 599.113 399.084, 598.666 396.328 C 597.864 391.390, 595.639 389.303, 589.852 388.062 C 584.468 386.907, 584.757 386.908, 577.500 388.006 M 564.044 435.750 C 560.165 440.441, 556.669 451.320, 554.636 465.026 C 553.778 470.815, 551.073 485.215, 548.625 497.026 C 542.234 527.856, 540.684 538.793, 540.694 553 C 540.703 567.996, 543.350 580, 546.646 580 C 549.105 580, 550 575.212, 550 562.066 C 550 548.366, 551.070 540.691, 556.490 515.500 C 558.384 506.700, 561.081 492.243, 562.484 483.373 C 565.231 466.012, 568.484 454.890, 572.663 448.574 C 574.108 446.391, 575.501 442.733, 575.759 440.447 C 576.143 437.036, 575.814 435.905, 573.925 434.145 C 570.515 430.968, 567.609 431.440, 564.044 435.750 M 449.500 518.649 C 447.850 518.842, 442.225 519.481, 437 520.070 C 426.104 521.299, 413.044 523.350, 384 528.395 C 372.725 530.353, 348.425 533.976, 330 536.445 C 287.210 542.180, 270.794 545.005, 248.500 550.472 C 238.600 552.899, 228.700 555.176, 226.500 555.532 C 215.526 557.307, 206.806 560.318, 203.437 563.495 C 200.147 566.597, 200 567.041, 200 573.845 C 200 580.355, 200.214 581.094, 202.541 582.619 C 206.729 585.363, 216.281 583.929, 232.970 578.051 C 240.929 575.248, 248.014 573.175, 248.716 573.444 C 249.716 573.828, 249.856 577.768, 249.367 591.717 C 248.707 610.541, 249.367 615.783, 252.945 620.155 L 254.864 622.500 256.468 618.695 C 259.078 612.506, 260.041 605.473, 260.691 587.843 L 261.305 571.186 270.403 568.658 C 281.845 565.479, 292.216 563.479, 307.500 561.506 C 324.828 559.269, 330.265 558.414, 362.500 552.851 C 402.372 545.970, 422.352 543.043, 423.302 543.943 C 423.743 544.362, 424.967 552.005, 426.022 560.928 C 429.309 588.734, 431.150 596, 434.910 596 C 438.528 596, 439.242 589.962, 438.326 567.111 C 437.872 555.775, 437.500 545.603, 437.500 544.507 C 437.500 542.709, 438.898 542.303, 451.707 540.375 C 477.809 536.446, 486.155 533.413, 486.826 527.614 C 487.241 524.029, 483.932 520.353, 479.074 519.004 C 475.759 518.083, 456.355 517.850, 449.500 518.649 M 678 656.023 L 678 759.045 696.250 758.773 L 714.500 758.500 715 718 L 715.500 677.500 734.239 677.228 L 752.978 676.956 753.239 717.728 L 753.500 758.500 771.750 758.773 L 790 759.045 790 656 L 790 552.955 771.750 553.227 L 753.500 553.500 753.238 592.750 L 752.977 632 733.988 632 L 715 632 715 592.500 L 715 553 696.500 553 L 678 553 678 656.023 M 858.385 555.750 C 858.026 557.263, 850.355 586.625, 841.339 621 C 832.322 655.375, 822.655 692.275, 819.855 703 C 817.056 713.725, 812.627 730.524, 810.013 740.332 C 806.735 752.633, 805.619 758.300, 806.414 758.605 C 807.048 758.849, 815.644 758.925, 825.516 758.774 L 843.464 758.500 847.066 743.500 L 850.668 728.500 873.560 728.500 L 896.451 728.500 898.735 738.500 C 899.992 744, 901.581 750.750, 902.268 753.500 L 903.516 758.500 922.258 758.772 C 943.808 759.085, 942.258 760.033, 939.079 748.480 C 936.637 739.604, 935.703 736.067, 914.527 655.500 C 904.841 618.650, 894.817 580.513, 892.250 570.750 L 887.583 553 873.311 553 L 859.038 553 858.385 555.750 M 957 656 L 957 759 1044.500 759 L 1132 759 1132 656 L 1132 553 1114.006 553 L 1096.012 553 1095.756 633.250 L 1095.500 713.500 1079.250 713.775 L 1063 714.050 1063 633.525 L 1063 553 1044.500 553 L 1026 553 1026 633.500 L 1026 714 1010 714 L 994 714 994 635.082 C 994 591.677, 993.727 555.452, 993.393 554.582 C 992.871 553.221, 990.287 553, 974.893 553 L 957 553 957 656 M 1162.464 554.241 C 1162.201 554.933, 1162.101 601.175, 1162.242 657 L 1162.500 758.500 1213 758.500 L 1263.500 758.500 1263.769 736.264 L 1264.038 714.028 1231.769 713.764 L 1199.500 713.500 1199.227 695.750 L 1198.954 678 1226.496 678 L 1254.038 678 1253.769 655.250 L 1253.500 632.500 1226.226 632.234 L 1198.952 631.968 1199.226 615.234 L 1199.500 598.500 1231.500 598 L 1263.500 597.500 1263.500 575.500 L 1263.500 553.500 1213.222 553.241 C 1173.532 553.036, 1162.843 553.247, 1162.464 554.241 M 605.500 583.667 C 603.300 583.849, 589.800 584.681, 575.500 585.516 C 542.320 587.453, 522.467 588.792, 508 590.070 C 486.185 591.997, 455.480 595.097, 448.500 596.077 C 419.261 600.183, 397.105 604.007, 336 615.494 C 284.872 625.105, 248.394 631.251, 217.500 635.458 C 193.160 638.773, 179.502 640.906, 174.613 642.157 L 170.727 643.151 171.376 650.325 C 172.150 658.879, 175.825 671.996, 177.644 672.694 C 180.341 673.729, 198.274 671.005, 215.061 667.010 C 224.653 664.728, 246.225 660.187, 263 656.918 C 279.775 653.649, 297.396 649.859, 302.159 648.496 C 306.921 647.133, 318.846 644.883, 328.659 643.497 C 356.646 639.545, 387.778 633.306, 393.500 630.502 C 400.279 627.181, 412.860 625.371, 442 623.524 C 470.157 621.739, 476.676 620.967, 498 616.891 C 523.914 611.938, 535.152 610.928, 571.250 610.309 C 589.813 609.991, 605 609.937, 605 610.190 C 605 611.728, 599.216 627.128, 593.194 641.624 C 589.338 650.906, 582.254 668.400, 577.451 680.500 C 572.648 692.600, 559.510 723.200, 548.254 748.500 C 518.041 816.413, 503.153 852.923, 492.021 886.400 L 486.734 902.299 468.117 901.452 C 430.647 899.745, 322.913 900.971, 293.500 903.438 C 261.956 906.085, 236.277 908.951, 221.500 911.476 C 213.800 912.791, 203.174 914.179, 197.887 914.561 L 188.274 915.254 186.602 907.877 C 178.426 871.798, 170.067 807.152, 167.416 759.500 C 166.590 744.650, 165.259 727.809, 164.457 722.076 C 163.656 716.343, 162.989 708.693, 162.976 705.076 C 162.932 693.262, 160.198 686, 155.794 686 C 150.432 686, 149.469 703.905, 153.445 729.661 C 154.790 738.373, 156.577 752.475, 157.417 761 C 163.058 818.241, 164.532 831.432, 168.051 856.166 C 174.512 901.586, 179.682 924.474, 184.503 929.003 C 186.470 930.851, 187.987 931.133, 196.133 931.165 C 202.421 931.189, 208.130 930.527, 213.500 929.149 C 222.175 926.923, 241.186 923.492, 250 922.561 C 292.454 918.080, 325.854 916.255, 410.500 913.793 C 461.634 912.306, 469.674 912.251, 477.281 913.331 L 483.062 914.152 482.374 917.826 C 481.771 921.049, 481.874 921.345, 483.216 920.233 C 484.058 919.536, 485.479 919.246, 486.373 919.590 C 487.440 919.999, 488 919.686, 488 918.680 C 488 917.837, 487.212 916.970, 486.250 916.754 C 485.008 916.475, 485.660 915.826, 488.500 914.517 C 491.652 913.064, 494.726 912.697, 503 912.790 C 508.775 912.855, 515.013 912.673, 516.862 912.387 L 520.224 911.867 517.920 909.414 C 515.280 906.605, 504.622 903, 498.954 903 C 496.844 903, 494.897 902.643, 494.628 902.207 C 493.640 900.609, 499.399 885.997, 509.482 864.514 C 515.165 852.406, 522.141 836.650, 524.984 829.500 C 534.390 805.851, 543.183 785.824, 549.537 773.582 C 559.045 755.265, 588.072 691.278, 595.485 672.297 C 605.893 645.648, 611.979 631.151, 616.636 621.917 C 622.635 610.020, 625.946 600.826, 626.631 594.162 C 627.128 589.323, 626.896 588.100, 625.034 585.750 C 623.016 583.203, 622.362 583.012, 616.177 583.168 C 612.505 583.261, 607.700 583.485, 605.500 583.667 M 873.102 636.649 C 869.270 650.987, 861.397 685.064, 861.820 685.486 C 862.102 685.769, 867.914 686, 874.734 686 C 886.076 686, 887.090 685.851, 886.615 684.250 C 886.329 683.288, 883.574 671.488, 880.494 658.030 C 877.413 644.571, 874.721 633.388, 874.512 633.179 C 874.303 632.969, 873.668 634.531, 873.102 636.649 M 466 646.018 C 459.675 647.602, 451.910 649.204, 448.745 649.579 C 443.537 650.195, 442.596 649.999, 438.838 647.512 L 434.686 644.764 432.865 647.132 C 431.864 648.434, 431.034 649.816, 431.022 650.203 C 430.972 651.799, 422.532 653.111, 406.500 654.017 C 397.150 654.545, 385.900 655.456, 381.500 656.041 C 377.100 656.626, 362.250 658.641, 348.500 660.518 C 319.142 664.525, 297.408 666.045, 283.500 665.064 C 272.002 664.253, 271.797 664.362, 269.501 672.500 C 266.064 684.677, 266.788 703.675, 271.565 726.712 C 272.904 733.171, 274 740.083, 274 742.073 C 274 744.384, 274.701 746.325, 275.942 747.448 C 277.771 749.103, 278.430 749.113, 287.192 747.624 C 292.312 746.753, 303.925 745.329, 313 744.459 C 333.880 742.456, 368.500 737.799, 390.500 734.034 C 405.827 731.410, 415.272 730.360, 440.500 728.475 C 450.358 727.738, 466.382 725.314, 470.750 723.898 C 473.987 722.849, 474 722.817, 474.001 716.172 C 474.002 712.503, 475.107 704.940, 476.458 699.366 C 477.808 693.792, 479.828 683.892, 480.946 677.366 C 483.238 663.988, 483.994 661.073, 486.549 655.776 C 488.622 651.478, 487.711 648.128, 483.796 645.657 C 479.679 643.059, 477.655 643.100, 466 646.018 M 517.500 645.617 C 501.705 650.458, 501.135 650.761, 500.394 654.712 C 499.829 657.725, 500.090 658.559, 502.063 660.047 C 503.836 661.385, 504.139 662.136, 503.317 663.156 C 501.376 665.561, 497.255 678.334, 496.174 685.293 C 494.893 693.543, 496.034 701.835, 499.031 706.044 C 502.529 710.955, 506.169 712.243, 515.388 711.830 C 526.284 711.342, 533.057 708.020, 542.749 698.413 C 557.645 683.647, 561.064 666.718, 551.326 655.939 C 547.724 651.952, 530.756 642.910, 527.201 643.083 C 526.265 643.128, 521.900 644.269, 517.500 645.617 M 519.060 661.540 C 512.492 667.684, 505.866 680.565, 505.211 688.464 C 504.563 696.281, 505.384 698.480, 509.714 700.535 C 513.015 702.101, 514.144 702.164, 519.421 701.074 C 527.324 699.442, 531.787 697.052, 537.717 691.276 C 547.472 681.774, 551.085 671.650, 547.028 665.182 C 544.450 661.073, 537.764 657.970, 529.960 657.263 L 524.193 656.740 519.060 661.540 M 453.784 659.855 C 448.440 660.760, 443.641 661.950, 443.119 662.500 C 442.597 663.050, 440.772 671.825, 439.065 682 C 435.439 703.606, 432.322 715.939, 430.291 716.719 C 429.496 717.024, 428.106 716.535, 427.203 715.632 C 425.894 714.322, 425.603 712.205, 425.765 705.161 C 425.943 697.386, 426.537 691.765, 429.556 669.234 L 430.262 663.968 421.381 664.586 C 409.679 665.401, 389.450 667.991, 357 672.831 C 342.425 675.004, 321.977 677.781, 311.560 679.002 C 301.143 680.222, 289.668 681.959, 286.060 682.860 L 279.500 684.500 279.206 700 C 278.925 714.855, 280.279 731.637, 281.893 733.279 C 282.314 733.708, 286.673 733.607, 291.579 733.056 C 296.486 732.505, 324.125 730.240, 353 728.023 C 381.875 725.806, 410.225 723.536, 416 722.978 C 436.292 721.020, 462.507 717.775, 463.164 717.141 C 463.529 716.788, 464.337 712.225, 464.959 707 C 465.582 701.775, 467.023 693, 468.162 687.500 C 471.719 670.321, 472.878 661.641, 471.866 659.750 C 470.708 657.587, 467.055 657.608, 453.784 659.855 M 198.149 679.533 C 193.976 681.345, 183.435 689.669, 178.758 694.846 C 173.626 700.527, 170.786 708.748, 170.241 719.500 C 169.680 730.584, 171.008 735.897, 175.616 740.997 C 180.806 746.742, 186.848 748.514, 201 748.441 C 225.651 748.314, 245.451 739.365, 253.165 724.863 C 255.095 721.234, 255.487 718.986, 255.493 711.500 C 255.499 703.681, 255.121 701.680, 252.615 696.253 C 249.083 688.606, 242.721 682.417, 237.340 681.394 C 234.976 680.945, 229.656 681.308, 223.500 682.339 C 210.290 684.552, 209.140 684.499, 208.052 681.636 C 206.598 677.812, 203.587 677.172, 198.149 679.533 M 218 693.639 C 212.501 694.699, 198.154 699.369, 192.433 701.960 C 185.690 705.015, 183.784 707.759, 181.785 717.289 C 180.263 724.544, 182.382 729.023, 188.843 732.206 C 193.027 734.267, 194.922 734.500, 207.500 734.500 C 219.537 734.500, 222.517 734.167, 228.753 732.124 C 244.897 726.834, 252.599 712.672, 245.077 702.109 C 240.911 696.258, 226.994 691.905, 218 693.639 M 470 762.628 C 468.075 762.853, 460.650 764.022, 453.500 765.227 C 444.550 766.735, 437.073 767.351, 429.500 767.205 C 411.870 766.865, 366.824 771.090, 324 777.100 C 300.254 780.433, 288.938 782.501, 250.500 790.532 C 236.200 793.519, 217.778 797.107, 209.561 798.504 C 201.345 799.901, 194.418 801.249, 194.167 801.500 C 193.229 802.438, 192.781 812.057, 193.464 816.607 C 194.387 822.764, 198.397 827, 203.301 827 C 207.506 827, 254.878 815.346, 256.650 813.876 C 257.344 813.299, 258.414 813.138, 259.027 813.516 C 259.640 813.895, 262.979 812.808, 266.448 811.100 C 271.589 808.570, 274.487 807.876, 282.127 807.346 C 287.282 806.989, 291.792 806.249, 292.149 805.703 C 292.505 805.157, 299.255 804.365, 307.149 803.943 C 317.538 803.388, 323.295 802.581, 328 801.017 C 333.276 799.264, 338.361 798.688, 355 797.957 C 366.275 797.461, 379.775 796.365, 385 795.520 C 406.217 792.090, 421.118 790.051, 432.500 789.021 C 449.671 787.466, 465.243 784.348, 472.353 781.042 C 475.734 779.470, 480.460 777.869, 482.856 777.486 C 488.422 776.595, 491.218 773.888, 490.809 769.790 C 490.209 763.790, 482.567 761.159, 470 762.628 M 440.500 795.917 C 415.817 800.336, 401.960 802.701, 384 805.558 C 374.925 807.002, 348.825 811.524, 326 815.607 C 303.175 819.691, 276.400 823.918, 266.500 825 C 246.600 827.176, 236.019 829.354, 232.839 831.929 C 228.959 835.071, 229.120 851.120, 233.072 855.072 C 236.865 858.865, 248.944 857.078, 276.080 848.709 C 282.449 846.745, 302.474 842.201, 320.580 838.610 C 365.347 829.733, 389.598 824.651, 401.500 821.654 C 414.239 818.446, 420.844 817.316, 434.500 816.007 C 463.583 813.221, 476 808.437, 476 800.020 C 476 792.545, 465.873 791.375, 440.500 795.917 M 1089.251 823.483 C 1081.423 825.683, 1076.268 828.636, 1070.920 833.985 C 1063.752 841.153, 1062.487 846.216, 1062.551 867.500 C 1062.596 882.663, 1062.842 885.110, 1064.832 890.143 C 1069.179 901.135, 1080.950 909.155, 1095.431 910.991 C 1110.256 912.871, 1123.390 909.291, 1132.509 900.885 C 1140.708 893.327, 1143 885.805, 1143 866.453 C 1143 846.970, 1140.226 838.658, 1131.295 831.377 C 1123.779 825.251, 1116.525 822.813, 1104.500 822.374 C 1097.708 822.125, 1092.816 822.481, 1089.251 823.483 M 680.239 866.678 L 680.500 910.500 693.250 910.780 L 706 911.060 706 896.230 C 706 886.029, 706.375 881.025, 707.200 880.200 C 707.990 879.410, 712.221 879, 719.595 879 C 734.415 879, 741.757 876.822, 749.055 870.261 C 751.941 867.666, 755.125 863.733, 756.129 861.521 C 758.568 856.153, 758.570 845.849, 756.134 840.500 C 753.789 835.350, 747.236 829.472, 740.120 826.135 C 734.544 823.521, 734.286 823.497, 707.239 823.178 L 679.979 822.857 680.239 866.678 M 783.651 826.250 C 782.895 828.038, 778.212 838.725, 773.244 850 C 758.705 883.003, 747 910.010, 747 910.553 C 747 910.830, 753.125 910.931, 760.612 910.778 L 774.224 910.500 776.460 904.500 L 778.696 898.500 795.181 898.227 L 811.666 897.953 814.123 904.227 L 816.580 910.500 829.790 910.779 C 837.572 910.943, 843 910.672, 843 910.117 C 843 909.146, 809.049 830.930, 806.424 825.853 C 804.951 823.005, 804.930 823, 794.988 823 L 785.027 823 783.651 826.250 M 875.547 824.250 C 875.332 824.938, 874.916 832.925, 874.622 842 C 874.057 859.414, 872.192 870.817, 867.834 883.500 C 865.520 890.235, 865.298 890.510, 861.964 890.770 C 860.059 890.918, 857.477 891.267, 856.228 891.545 L 853.955 892.049 854.228 910.275 L 854.500 928.500 866.500 928.500 L 878.500 928.500 878.789 919.750 L 879.078 911 904.500 911 L 929.922 911 930.211 919.750 L 930.500 928.500 942.772 928.781 L 955.044 929.062 954.772 910.281 L 954.500 891.500 948.750 891.200 L 943 890.900 943 856.950 L 943 823 909.469 823 C 883.518 823, 875.849 823.283, 875.547 824.250 M 966.239 866.750 L 966.500 910.500 977.525 910.781 L 988.551 911.061 1004.557 888.354 C 1013.360 875.864, 1020.999 865.500, 1021.531 865.322 C 1022.137 865.120, 1022.500 873.517, 1022.500 887.750 L 1022.500 910.500 1035.500 910.500 L 1048.500 910.500 1048.500 867 L 1048.500 823.500 1037 823.239 L 1025.500 822.977 1009.500 845.955 C 1000.700 858.592, 993.163 868.947, 992.750 868.966 C 992.337 868.985, 992 858.650, 992 846 L 992 823 978.989 823 L 965.979 823 966.239 866.750 M 449.500 830.143 C 445.650 830.683, 432.825 832.692, 421 834.610 C 409.175 836.527, 389.600 839.215, 377.500 840.583 C 349.286 843.774, 311.554 849.237, 288.001 853.541 C 277.826 855.400, 263.283 857.865, 255.684 859.019 C 231.132 862.745, 219.242 866.698, 216.473 872.053 C 214.162 876.522, 214.570 883.389, 217.339 886.607 L 219.678 889.326 227.442 888.074 C 231.712 887.385, 237.747 885.936, 240.853 884.853 C 251.251 881.229, 268.352 877.189, 290.516 873.120 C 322.847 867.185, 376.689 858.435, 399 855.490 C 409.725 854.074, 424.125 851.611, 431 850.016 C 437.875 848.422, 447.312 846.406, 451.971 845.537 C 463.865 843.320, 467.738 842.210, 473.796 839.281 C 479.716 836.419, 480.088 834.897, 475.677 831.606 C 473.406 829.911, 471.259 829.467, 464.677 829.331 C 460.180 829.239, 453.350 829.604, 449.500 830.143 M 1097.094 842.256 C 1092.255 844.023, 1090.058 847.578, 1088.874 855.552 C 1087.657 863.747, 1088.557 881.003, 1090.434 885.497 C 1094.098 894.264, 1110.257 894.048, 1114.673 885.173 C 1117.303 879.886, 1117.327 853.120, 1114.706 848.259 C 1111.450 842.222, 1104.072 839.707, 1097.094 842.256 M 706.490 844.186 C 706.162 845.493, 706.030 849.473, 706.197 853.031 L 706.500 859.500 715.550 859.785 C 723.634 860.039, 724.969 859.821, 728.050 857.745 C 731.099 855.691, 731.500 854.914, 731.500 851.068 C 731.500 844.401, 728.455 842.595, 716.472 842.155 C 707.297 841.818, 707.072 841.863, 706.490 844.186 M 900.502 851.750 C 899.663 863.704, 897.646 874.091, 894.434 882.994 C 893.095 886.705, 892 890.025, 892 890.371 C 892 890.717, 897.625 891, 904.500 891 L 917 891 917 866.500 L 917 842 909.093 842 L 901.187 842 900.502 851.750 M 795 858.292 C 795 858.452, 793.200 862.991, 791 868.377 C 788.800 873.763, 787 878.582, 787 879.085 C 787 880.174, 803.990 880.338, 804.022 879.250 C 804.072 877.512, 796.515 858, 795.792 858 C 795.356 858, 795 858.131, 795 858.292 M 576.072 1033.491 C 567.866 1035.350, 556.914 1040.576, 550.447 1045.718 C 543.701 1051.081, 536.684 1061.700, 533.409 1071.500 C 528.229 1087.002, 529.139 1110.213, 535.492 1124.578 C 538.260 1130.838, 546.366 1139.852, 552.412 1143.396 C 562.259 1149.166, 568.186 1150.405, 586 1150.415 C 601.456 1150.424, 603.038 1150.246, 611 1147.596 C 615.675 1146.040, 621.707 1143.651, 624.405 1142.288 L 629.311 1139.809 628.701 1148.154 C 625.301 1194.672, 593.324 1216.576, 549.326 1202.525 C 540.925 1199.842, 537.474 1199.425, 536.515 1200.976 C 535.139 1203.202, 534.823 1211.933, 535.990 1215.469 C 537.009 1218.556, 538.128 1219.627, 542.363 1221.565 C 554.415 1227.080, 582.395 1228.560, 597.500 1224.482 C 633.035 1214.888, 652.457 1182.792, 654.671 1130 C 655.795 1103.223, 652.051 1078.016, 644.647 1062.509 C 638.010 1048.608, 628.432 1039.796, 614.723 1034.978 C 606.561 1032.110, 585.710 1031.308, 576.072 1033.491 M 731.757 1032.968 C 718.213 1035.435, 705.194 1042.266, 698.525 1050.404 C 687.889 1063.383, 685.658 1083.125, 693.044 1098.907 C 696.783 1106.899, 707.603 1117.802, 717.410 1123.462 C 722.318 1126.295, 723.879 1127.655, 722.887 1128.233 C 700.779 1141.120, 692.280 1148.608, 686.513 1160.277 C 683.271 1166.836, 682.687 1169.087, 682.255 1176.689 C 680.513 1207.320, 700.575 1225.004, 739 1226.707 C 758.516 1227.572, 776.312 1224.263, 786.829 1217.815 C 792.066 1214.604, 799.854 1207.159, 802.739 1202.606 C 811.023 1189.535, 812.084 1170.097, 805.255 1156.500 C 801.412 1148.846, 789.131 1137.458, 777.757 1131 C 772.429 1127.975, 768.054 1125.226, 768.035 1124.892 C 768.016 1124.558, 770.712 1122.610, 774.028 1120.564 C 782.232 1115.500, 791.578 1106.680, 796.053 1099.779 C 801.317 1091.660, 803.415 1083.139, 802.756 1072.563 C 801.577 1053.665, 790.579 1040.892, 770 1034.522 C 763.661 1032.560, 739.410 1031.575, 731.757 1032.968 M 958.757 1032.968 C 945.213 1035.435, 932.194 1042.266, 925.525 1050.404 C 914.889 1063.383, 912.658 1083.125, 920.044 1098.907 C 923.783 1106.899, 934.603 1117.802, 944.410 1123.462 C 949.318 1126.295, 950.879 1127.655, 949.887 1128.233 C 927.779 1141.120, 919.280 1148.608, 913.513 1160.277 C 910.271 1166.836, 909.687 1169.087, 909.255 1176.689 C 907.513 1207.320, 927.575 1225.004, 966 1226.707 C 985.516 1227.572, 1003.312 1224.263, 1013.829 1217.815 C 1019.066 1214.604, 1026.854 1207.159, 1029.739 1202.606 C 1038.023 1189.535, 1039.084 1170.097, 1032.255 1156.500 C 1028.412 1148.846, 1016.131 1137.458, 1004.757 1131 C 999.429 1127.975, 995.054 1125.226, 995.035 1124.892 C 995.016 1124.558, 997.712 1122.610, 1001.028 1120.564 C 1009.232 1115.500, 1018.578 1106.680, 1023.053 1099.779 C 1028.317 1091.660, 1030.415 1083.139, 1029.756 1072.563 C 1028.577 1053.665, 1017.579 1040.892, 997 1034.522 C 990.661 1032.560, 966.410 1031.575, 958.757 1032.968 M 582.147 1053.012 C 573.290 1054.882, 565.078 1061.569, 560.672 1070.500 C 556.888 1078.169, 555.670 1085.477, 556.198 1097.336 C 556.613 1106.672, 557.036 1108.631, 559.893 1114.435 C 563.366 1121.489, 566.741 1124.650, 574.555 1128.164 C 578.563 1129.967, 581.395 1130.399, 589.500 1130.444 C 602.134 1130.515, 609.785 1128.815, 620.226 1123.619 L 628.500 1119.500 628.283 1107.500 C 627.778 1079.641, 619.841 1061.050, 605.890 1055.048 C 600.027 1052.526, 588.950 1051.576, 582.147 1053.012 M 734.500 1053.339 C 721.075 1056.837, 714 1065.521, 714 1078.500 C 714 1089.407, 719.294 1097.767, 731.344 1105.889 C 743.254 1113.918, 746.685 1115.373, 750.235 1113.903 C 758.343 1110.544, 770.653 1099.325, 774.815 1091.500 C 778.379 1084.800, 778.576 1072.761, 775.227 1066.347 C 772.521 1061.164, 766.998 1056.537, 761.056 1054.474 C 754.836 1052.313, 740.745 1051.711, 734.500 1053.339 M 961.500 1053.339 C 948.075 1056.837, 941 1065.521, 941 1078.500 C 941 1089.407, 946.294 1097.767, 958.344 1105.889 C 970.254 1113.918, 973.685 1115.373, 977.235 1113.903 C 985.343 1110.544, 997.653 1099.325, 1001.815 1091.500 C 1005.379 1084.800, 1005.576 1072.761, 1002.227 1066.347 C 999.521 1061.164, 993.998 1056.537, 988.056 1054.474 C 981.836 1052.313, 967.745 1051.711, 961.500 1053.339 M 734.108 1142.815 C 722.336 1149.555, 714.822 1156.584, 710.924 1164.503 C 707.954 1170.535, 707.776 1171.496, 708.198 1179.228 C 708.694 1188.334, 710.125 1191.971, 715.215 1197.061 C 722.741 1204.587, 738.784 1208.329, 754.507 1206.226 C 772.880 1203.768, 782.576 1195.246, 783.744 1180.529 C 784.971 1165.081, 776.872 1154.536, 754.996 1143.096 C 749.636 1140.293, 744.632 1138.002, 743.876 1138.005 C 743.119 1138.008, 738.723 1140.172, 734.108 1142.815 M 961.108 1142.815 C 949.336 1149.555, 941.822 1156.584, 937.924 1164.503 C 934.954 1170.535, 934.776 1171.496, 935.198 1179.228 C 935.694 1188.334, 937.125 1191.971, 942.215 1197.061 C 949.741 1204.587, 965.784 1208.329, 981.507 1206.226 C 999.880 1203.768, 1009.576 1195.246, 1010.744 1180.529 C 1011.971 1165.081, 1003.872 1154.536, 981.996 1143.096 C 976.636 1140.293, 971.632 1138.002, 970.876 1138.005 C 970.119 1138.008, 965.723 1140.172, 961.108 1142.815 M 853.020 1192.284 C 848.923 1194.357, 848.031 1197.535, 848.015 1210.116 L 848 1221.733 838 1242.205 C 832.500 1253.465, 828 1263.192, 828 1263.820 C 828 1266.577, 842.271 1266.660, 845.618 1263.923 C 849.247 1260.954, 872.640 1224.273, 874.319 1218.919 C 876.090 1213.272, 876.817 1200.149, 875.576 1196.239 C 875.181 1194.996, 873.563 1193.308, 871.979 1192.489 C 868.435 1190.656, 856.492 1190.528, 853.020 1192.284" stroke="none" fill="#e32c2c" fill-rule="evenodd"/></svg>